<svg width="124" height="73" viewBox="0 0 124 73" fill="none" xmlns="http://www.w3.org/2000/svg">
<mask id="path-1-inside-1_269_11384" fill="white">
<path fill-rule="evenodd" clip-rule="evenodd" d="M46.9671 31.3605L70.6157 39.1485L60.1103 23.9331L47.0397 31.1032L46.9671 31.3605ZM79.6207 41.5104V13.2304L65.4588 20.9991L79.6207 41.5104ZM73.1641 10.0099L54.6658 4.08261L49.2979 23.1021L73.1641 10.0099ZM48.8104 2.20642L43.0734 0.368164V22.5337L48.8104 2.20642Z"/>
</mask>
<path fill-rule="evenodd" clip-rule="evenodd" d="M46.9671 31.3605L70.6157 39.1485L60.1103 23.9331L47.0397 31.1032L46.9671 31.3605ZM79.6207 41.5104V13.2304L65.4588 20.9991L79.6207 41.5104ZM73.1641 10.0099L54.6658 4.08261L49.2979 23.1021L73.1641 10.0099ZM48.8104 2.20642L43.0734 0.368164V22.5337L48.8104 2.20642Z" fill="#FFE0B2"/>
<path d="M70.6157 39.1485L70.5487 39.3519L71.1541 39.5513L70.7919 39.0268L70.6157 39.1485ZM46.9671 31.3605L46.7609 31.3023L46.7052 31.4998L46.9001 31.564L46.9671 31.3605ZM60.1103 23.9331L60.2866 23.8114L60.1768 23.6523L60.0073 23.7453L60.1103 23.9331ZM47.0397 31.1032L46.9367 30.9154L46.8579 30.9586L46.8335 31.0451L47.0397 31.1032ZM79.6207 13.2304H79.835V12.8685L79.5177 13.0426L79.6207 13.2304ZM79.6207 41.5104L79.4444 41.6321L79.835 42.1977V41.5104H79.6207ZM65.4588 20.9991L65.3558 20.8113L65.1477 20.9255L65.2826 21.1208L65.4588 20.9991ZM54.6658 4.08261L54.7311 3.87861L54.5199 3.81091L54.4596 4.02443L54.6658 4.08261ZM73.1641 10.0099L73.2671 10.1977L73.7041 9.95794L73.2295 9.80585L73.1641 10.0099ZM49.2979 23.1021L49.0917 23.0439L48.9529 23.5356L49.4009 23.2899L49.2979 23.1021ZM43.0734 0.368164L43.1387 0.16416L42.8591 0.0745745V0.368164H43.0734ZM48.8104 2.20642L49.0165 2.26461L49.0727 2.06553L48.8757 2.00241L48.8104 2.20642ZM43.0734 22.5337H42.8591L43.2795 22.5919L43.0734 22.5337ZM70.6827 38.945L47.0341 31.157L46.9001 31.564L70.5487 39.3519L70.6827 38.945ZM70.7919 39.0268L60.2866 23.8114L59.934 24.0548L70.4394 39.2702L70.7919 39.0268ZM60.0073 23.7453L46.9367 30.9154L47.1427 31.2911L60.2134 24.1209L60.0073 23.7453ZM46.8335 31.0451L46.7609 31.3023L47.1733 31.4187L47.2459 31.1614L46.8335 31.0451ZM79.4065 13.2304V41.5104H79.835V13.2304H79.4065ZM79.5177 13.0426L65.3558 20.8113L65.5619 21.1869L79.7238 13.4182L79.5177 13.0426ZM65.2826 21.1208L79.4444 41.6321L79.797 41.3887L65.6351 20.8774L65.2826 21.1208ZM54.6004 4.28662L73.0987 10.2139L73.2295 9.80585L54.7311 3.87861L54.6004 4.28662ZM54.4596 4.02443L49.0917 23.0439L49.5041 23.1602L54.8719 4.1408L54.4596 4.02443ZM49.4009 23.2899L73.2671 10.1977L73.0611 9.82204L49.1949 22.9142L49.4009 23.2899ZM43.008 0.572168L48.745 2.41042L48.8757 2.00241L43.1387 0.16416L43.008 0.572168ZM43.2876 22.5337V0.368164H42.8591V22.5337H43.2876ZM43.2795 22.5919L49.0165 2.26461L48.6042 2.14823L42.8672 22.4755L43.2795 22.5919Z" fill="#FFE0B2" mask="url(#path-1-inside-1_269_11384)"/>
<path d="M19.2359 66.6543H16.349L8.69225 58.9453L3.94342 62.3657V66.6543H1.79912V51.6547H3.94342V60.0122L15.7004 51.6547H18.828L10.324 57.7633L19.2359 66.6543ZM39.5689 59.1545C39.5689 60.1935 39.405 61.1698 39.0773 62.0833C38.7495 62.9968 38.2823 63.7917 37.6756 64.4682C37.0759 65.1446 36.3542 65.678 35.5104 66.0685C34.6666 66.459 33.7287 66.6543 32.6967 66.6543H27.7073C26.6682 66.6543 25.7233 66.459 24.8726 66.0685C24.0219 65.678 23.2931 65.1446 22.6865 64.4682C22.0868 63.7917 21.623 62.9968 21.2953 62.0833C20.9675 61.1698 20.8037 60.1935 20.8037 59.1545C20.8037 58.1224 20.9675 57.1531 21.2953 56.2466C21.623 55.3331 22.0868 54.5381 22.6865 53.8617C23.2931 53.1783 24.0219 52.6414 24.8726 52.2509C25.7233 51.8534 26.6682 51.6547 27.7073 51.6547H32.6967C33.7287 51.6547 34.6666 51.8534 35.5104 52.2509C36.3542 52.6414 37.0759 53.1783 37.6756 53.8617C38.2823 54.5381 38.7495 55.3331 39.0773 56.2466C39.405 57.1531 39.5689 58.1224 39.5689 59.1545ZM37.4246 59.1545C37.4246 58.4153 37.3165 57.7215 37.1003 57.0729C36.8842 56.4244 36.5704 55.8596 36.1589 55.3784C35.7545 54.8903 35.2594 54.5068 34.6736 54.2278C34.0948 53.9419 33.4358 53.799 32.6967 53.799H27.7073C26.9681 53.799 26.3021 53.9419 25.7094 54.2278C25.1236 54.5068 24.625 54.8903 24.2136 55.3784C23.8092 55.8596 23.4954 56.4244 23.2722 57.0729C23.056 57.7215 22.948 58.4153 22.948 59.1545C22.948 59.8937 23.056 60.591 23.2722 61.2465C23.4954 61.895 23.8092 62.4633 24.2136 62.9515C24.625 63.4326 25.1236 63.8127 25.7094 64.0916C26.3021 64.3705 26.9681 64.51 27.7073 64.51H32.6967C33.4358 64.51 34.0948 64.3705 34.6736 64.0916C35.2594 63.8127 35.7545 63.4326 36.1589 62.9515C36.5704 62.4633 36.8842 61.895 37.1003 61.2465C37.3165 60.591 37.4246 59.8937 37.4246 59.1545ZM60.906 66.6543H58.0086L53.5108 62.3657H46.9419V60.2528H55.5505C55.9968 60.2528 56.4152 60.1691 56.8057 60.0017C57.1962 59.8274 57.5344 59.5938 57.8203 59.3009C58.1132 59.008 58.3433 58.6664 58.5107 58.2758C58.678 57.8784 58.7617 57.4565 58.7617 57.0102C58.7617 56.5639 58.678 56.1455 58.5107 55.755C58.3433 55.3645 58.1132 55.0263 57.8203 54.7404C57.5344 54.4475 57.1962 54.2174 56.8057 54.05C56.4152 53.8826 55.9968 53.799 55.5505 53.799H45.739V66.6543H43.5947V51.6547H55.5505C56.2897 51.6547 56.9835 51.7976 57.632 52.0835C58.2806 52.3625 58.8454 52.746 59.3266 53.2341C59.8147 53.7153 60.1982 54.2801 60.4771 54.9286C60.7631 55.5772 60.906 56.271 60.906 57.0102C60.906 57.6796 60.7909 58.3142 60.5608 58.9139C60.3307 59.5066 60.0134 60.0401 59.609 60.5143C59.2045 60.9815 58.7268 61.372 58.176 61.6858C57.632 61.9926 57.0428 62.1983 56.4082 62.3029L60.906 66.6543ZM82.2536 57.0102C82.2536 57.7494 82.1106 58.4467 81.8247 59.1022C81.5458 59.7507 81.1623 60.319 80.6741 60.8072C80.193 61.2883 79.6281 61.6684 78.9796 61.9473C78.3311 62.2262 77.6373 62.3657 76.8981 62.3657H68.2895V60.2528H76.8981C77.3444 60.2528 77.7628 60.1691 78.1533 60.0017C78.5438 59.8274 78.882 59.5938 79.1679 59.3009C79.4608 59.008 79.6909 58.6664 79.8583 58.2758C80.0256 57.8784 80.1093 57.4565 80.1093 57.0102C80.1093 56.5639 80.0256 56.1455 79.8583 55.755C79.6909 55.3645 79.4608 55.0263 79.1679 54.7404C78.882 54.4475 78.5438 54.2174 78.1533 54.05C77.7628 53.8826 77.3444 53.799 76.8981 53.799H67.0866V66.6543H64.9423V51.6547H76.8981C77.6373 51.6547 78.3311 51.7976 78.9796 52.0835C79.6281 52.3625 80.193 52.746 80.6741 53.2341C81.1623 53.7153 81.5458 54.2801 81.8247 54.9286C82.1106 55.5772 82.2536 56.271 82.2536 57.0102ZM101.938 51.6547L101.917 59.1545C101.917 59.8518 101.826 60.5213 101.645 61.1628C101.471 61.7974 101.22 62.3936 100.892 62.9515C100.571 63.5024 100.181 64.0079 99.7205 64.4682C99.2673 64.9214 98.7617 65.3119 98.2038 65.6397C97.6529 65.9605 97.0602 66.2115 96.4256 66.3928C95.791 66.5671 95.1286 66.6543 94.4382 66.6543H92.8588C92.1684 66.6543 91.5025 66.5671 90.8609 66.3928C90.2263 66.2115 89.6301 65.957 89.0722 65.6292C88.5214 65.3015 88.0193 64.911 87.566 64.4577C87.1127 63.9975 86.7222 63.4919 86.3945 62.941C86.0737 62.3831 85.8227 61.7869 85.6414 61.1523C85.467 60.5108 85.3799 59.8448 85.3799 59.1545V51.6547H87.5242V59.1545C87.5242 59.8937 87.6636 60.591 87.9426 61.2465C88.2215 61.895 88.6015 62.4633 89.0827 62.9515C89.5708 63.4326 90.1392 63.8127 90.7877 64.0916C91.4362 64.3705 92.1266 64.51 92.8588 64.51H94.4382C95.1774 64.51 95.8712 64.3705 96.5198 64.0916C97.1683 63.8127 97.7331 63.4326 98.2143 62.9515C98.6954 62.4633 99.0755 61.895 99.3544 61.2465C99.6333 60.591 99.7728 59.8937 99.7728 59.1545V51.6547H101.917H101.938ZM122.878 62.3657C122.878 62.9654 122.766 63.5268 122.543 64.0498C122.32 64.5658 122.013 65.0191 121.622 65.4096C121.239 65.7931 120.786 66.0964 120.263 66.3196C119.747 66.5427 119.192 66.6543 118.6 66.6543H105.566V64.51H118.6C118.899 64.51 119.178 64.4542 119.436 64.3426C119.694 64.2311 119.918 64.0777 120.106 63.8824C120.301 63.6871 120.454 63.4605 120.566 63.2025C120.678 62.9375 120.733 62.6586 120.733 62.3657C120.733 62.0728 120.678 61.7974 120.566 61.5394C120.454 61.2813 120.301 61.0547 120.106 60.8595C119.918 60.6642 119.694 60.5108 119.436 60.3992C119.178 60.2877 118.899 60.2319 118.6 60.2319H109.855C109.269 60.2319 108.715 60.1203 108.192 59.8971C107.669 59.674 107.212 59.3707 106.822 58.9871C106.438 58.5966 106.131 58.1399 105.901 57.6169C105.678 57.0939 105.566 56.536 105.566 55.9433C105.566 55.3575 105.678 54.8031 105.901 54.2801C106.131 53.7571 106.438 53.3039 106.822 52.9203C107.212 52.5298 107.669 52.223 108.192 51.9999C108.715 51.7697 109.269 51.6547 109.855 51.6547H121.811V53.799H109.855C109.562 53.799 109.283 53.8548 109.018 53.9663C108.76 54.0779 108.534 54.2313 108.338 54.4266C108.143 54.6218 107.99 54.8519 107.878 55.1169C107.766 55.3749 107.711 55.6504 107.711 55.9433C107.711 56.2361 107.766 56.5151 107.878 56.7801C107.99 57.0381 108.143 57.2647 108.338 57.46C108.534 57.6552 108.76 57.8086 109.018 57.9202C109.283 58.0318 109.562 58.0876 109.855 58.0876H118.6C119.192 58.0876 119.747 58.2026 120.263 58.4327C120.786 58.6559 121.239 58.9627 121.622 59.3532C122.013 59.7368 122.32 60.19 122.543 60.713C122.766 61.229 122.878 61.7799 122.878 62.3657Z" fill="#FFE0B2"/>
<path d="M19.2359 66.6543V67.0827H20.272L19.5385 66.351L19.2359 66.6543ZM16.349 66.6543L16.045 66.9562L16.1706 67.0827H16.349V66.6543ZM8.69225 58.9453L8.99623 58.6434L8.73856 58.3839L8.44185 58.5976L8.69225 58.9453ZM3.94342 62.3657L3.69302 62.0181L3.51497 62.1463V62.3657H3.94342ZM3.94342 66.6543V67.0827H4.37186V66.6543H3.94342ZM1.79912 66.6543H1.37068V67.0827H1.79912V66.6543ZM1.79912 51.6547V51.2262H1.37068V51.6547H1.79912ZM3.94342 51.6547H4.37186V51.2262H3.94342V51.6547ZM3.94342 60.0122H3.51497V60.8424L4.19165 60.3614L3.94342 60.0122ZM15.7004 51.6547V51.2262H15.5637L15.4522 51.3055L15.7004 51.6547ZM18.828 51.6547L19.0779 52.0026L20.1588 51.2262H18.828V51.6547ZM10.324 57.7633L10.0741 57.4153L9.66391 57.71L10.0214 58.0666L10.324 57.7633ZM19.2359 66.2259H16.349V67.0827H19.2359V66.2259ZM16.6529 66.3524L8.99623 58.6434L8.38827 59.2472L16.045 66.9562L16.6529 66.3524ZM8.44185 58.5976L3.69302 62.0181L4.19382 62.7134L8.94265 59.2929L8.44185 58.5976ZM3.51497 62.3657V66.6543H4.37186V62.3657H3.51497ZM3.94342 66.2259H1.79912V67.0827H3.94342V66.2259ZM2.22756 66.6543V51.6547H1.37068V66.6543H2.22756ZM1.79912 52.0831H3.94342V51.2262H1.79912V52.0831ZM3.51497 51.6547V60.0122H4.37186V51.6547H3.51497ZM4.19165 60.3614L15.9487 52.0039L15.4522 51.3055L3.69518 59.663L4.19165 60.3614ZM15.7004 52.0831H18.828V51.2262H15.7004V52.0831ZM18.578 51.3067L10.0741 57.4153L10.574 58.1113L19.0779 52.0026L18.578 51.3067ZM10.0214 58.0666L18.9333 66.9576L19.5385 66.351L10.6266 57.46L10.0214 58.0666ZM37.6756 64.4682L37.3567 64.1821L37.355 64.1839L37.6756 64.4682ZM22.6865 64.4682L22.3659 64.7524L22.3675 64.7542L22.6865 64.4682ZM21.2953 56.2466L21.6982 56.3923L21.6986 56.3913L21.2953 56.2466ZM22.6865 53.8617L22.3661 53.5773L22.3659 53.5775L22.6865 53.8617ZM24.8726 52.2509L25.0513 52.6403L25.054 52.6391L24.8726 52.2509ZM35.5104 52.2509L35.3278 52.6385L35.3305 52.6397L35.5104 52.2509ZM37.6756 53.8617L37.3536 54.1443L37.3567 54.1478L37.6756 53.8617ZM39.0773 56.2466L38.674 56.3913L38.6743 56.3923L39.0773 56.2466ZM36.1589 55.3784L35.829 55.6518L35.8333 55.6569L36.1589 55.3784ZM34.6736 54.2278L34.4838 54.612L34.4894 54.6147L34.6736 54.2278ZM25.7094 54.2278L25.8936 54.6147L25.8955 54.6137L25.7094 54.2278ZM24.2136 55.3784L23.886 55.1023L23.8857 55.1027L24.2136 55.3784ZM23.2722 57.0729L22.8671 56.9335L22.8658 56.9375L23.2722 57.0729ZM23.2722 61.2465L22.8653 61.3807L22.8671 61.3859L23.2722 61.2465ZM24.2136 62.9515L23.8837 63.2248L23.888 63.2299L24.2136 62.9515ZM25.7094 64.0916L25.5252 64.4784L25.527 64.4793L25.7094 64.0916ZM34.6736 64.0916L34.4894 63.7048L34.4876 63.7056L34.6736 64.0916ZM36.1589 62.9515L35.8313 62.6753L35.831 62.6758L36.1589 62.9515ZM37.1003 61.2465L37.5068 61.382L37.5072 61.3807L37.1003 61.2465ZM39.1404 59.1545C39.1404 60.1477 38.9839 61.0747 38.674 61.9386L39.4805 62.228C39.8261 61.2649 39.9973 60.2393 39.9973 59.1545H39.1404ZM38.674 61.9386C38.3637 62.8036 37.9239 63.5497 37.3567 64.1821L37.9946 64.7542C38.6407 64.0338 39.1354 63.19 39.4805 62.228L38.674 61.9386ZM37.355 64.1839C36.7956 64.8149 36.1222 65.3133 35.3305 65.6797L35.6904 66.4574C36.5861 66.0428 37.3562 65.4743 37.9962 64.7524L37.355 64.1839ZM35.3305 65.6797C34.549 66.0414 33.6735 66.2259 32.6967 66.2259V67.0827C33.784 67.0827 34.7843 66.8767 35.6904 66.4574L35.3305 65.6797ZM32.6967 66.2259H27.7073V67.0827H32.6967V66.2259ZM27.7073 66.2259C26.7231 66.2259 25.8401 66.0412 25.0513 65.6792L24.6939 66.4579C25.6066 66.8769 26.6134 67.0827 27.7073 67.0827V66.2259ZM25.0513 65.6792C24.2523 65.3124 23.5717 64.8135 23.0054 64.1821L22.3675 64.7542C23.0146 65.4756 23.7915 66.0437 24.6939 66.4579L25.0513 65.6792ZM23.007 64.1839C22.4461 63.5513 22.0092 62.8046 21.6986 61.9386L20.892 62.228C21.2368 63.189 21.7274 64.0322 22.3659 64.7524L23.007 64.1839ZM21.6986 61.9386C21.3886 61.0747 21.2321 60.1477 21.2321 59.1545H20.3752C20.3752 60.2393 20.5465 61.2649 20.892 62.228L21.6986 61.9386ZM21.2321 59.1545C21.2321 58.1686 21.3885 57.2489 21.6982 56.3923L20.8924 56.1009C20.5466 57.0574 20.3752 58.0763 20.3752 59.1545H21.2321ZM21.6986 56.3913C22.0092 55.5253 22.4461 54.7786 23.007 54.146L22.3659 53.5775C21.7274 54.2977 21.2368 55.1409 20.892 56.1019L21.6986 56.3913ZM23.0069 54.1462C23.5731 53.5083 24.2532 53.0066 25.0513 52.6403L24.6939 51.8615C23.7905 52.2762 23.0132 52.8484 22.3661 53.5773L23.0069 54.1462ZM25.054 52.6391C25.8421 52.2708 26.7242 52.0831 27.7073 52.0831V51.2262C26.6123 51.2262 25.6046 51.436 24.6912 51.8627L25.054 52.6391ZM27.7073 52.0831H32.6967V51.2262H27.7073V52.0831ZM32.6967 52.0831C33.6724 52.0831 34.547 52.2707 35.3278 52.6385L35.693 51.8633C34.7863 51.4362 33.7851 51.2262 32.6967 51.2262V52.0831ZM35.3305 52.6397C36.1212 53.0057 36.7942 53.5069 37.3536 54.1443L37.9977 53.5791C37.3576 52.8498 36.5871 52.2771 35.6904 51.8621L35.3305 52.6397ZM37.3567 54.1478C37.9239 54.7802 38.3637 55.5263 38.674 56.3913L39.4805 56.1019C39.1354 55.1399 38.6407 54.2961 37.9946 53.5757L37.3567 54.1478ZM38.6743 56.3923C38.984 57.2489 39.1404 58.1686 39.1404 59.1545H39.9973C39.9973 58.0763 39.826 57.0574 39.4802 56.1009L38.6743 56.3923ZM37.853 59.1545C37.853 58.373 37.7387 57.6331 37.5068 56.9375L36.6939 57.2084C36.8943 57.8099 36.9961 58.4576 36.9961 59.1545H37.853ZM37.5068 56.9375C37.2745 56.2407 36.9347 55.6264 36.4846 55.1L35.8333 55.6569C36.206 56.0928 36.4938 56.6081 36.6939 57.2084L37.5068 56.9375ZM36.4888 55.1051C36.0437 54.5678 35.4985 54.1461 34.8578 53.841L34.4894 54.6147C35.0203 54.8675 35.4653 55.2128 35.829 55.6518L36.4888 55.1051ZM34.8634 53.8437C34.2175 53.5247 33.4921 53.3705 32.6967 53.3705V54.2274C33.3796 54.2274 33.9721 54.3592 34.4839 54.612L34.8634 53.8437ZM32.6967 53.3705H27.7073V54.2274H32.6967V53.3705ZM27.7073 53.3705C26.9116 53.3705 26.1808 53.5247 25.5233 53.8419L25.8955 54.6137C26.4234 54.3591 27.0245 54.2274 27.7073 54.2274V53.3705ZM25.5252 53.841C24.8852 54.1458 24.3375 54.5667 23.886 55.1023L24.5412 55.6545C24.9126 55.2139 25.3621 54.8678 25.8936 54.6147L25.5252 53.841ZM23.8857 55.1027C23.4444 55.6277 23.1058 56.2398 22.8671 56.9335L23.6774 57.2123C23.8849 56.6091 24.174 56.0914 24.5416 55.6541L23.8857 55.1027ZM22.8658 56.9375C22.6339 57.6331 22.5195 58.373 22.5195 59.1545H23.3764C23.3764 58.4576 23.4782 57.8099 23.6787 57.2084L22.8658 56.9375ZM22.5195 59.1545C22.5195 59.936 22.6339 60.6789 22.8653 61.3807L23.6791 61.1123C23.4782 60.5031 23.3764 59.8513 23.3764 59.1545H22.5195ZM22.8671 61.3859C23.1057 62.0792 23.4437 62.6938 23.8837 63.2248L24.5435 62.6781C24.1746 62.2329 23.8851 61.7108 23.6774 61.1071L22.8671 61.3859ZM23.888 63.2299C24.3394 63.7578 24.8866 64.1743 25.5252 64.4784L25.8936 63.7048C25.3607 63.451 24.9107 63.1074 24.5392 62.673L23.888 63.2299ZM25.527 64.4793C26.1837 64.7883 26.9131 64.9384 27.7073 64.9384V64.0816C27.023 64.0816 26.4206 63.9528 25.8918 63.7039L25.527 64.4793ZM27.7073 64.9384H32.6967V64.0816H27.7073V64.9384ZM32.6967 64.9384C33.4906 64.9384 34.2147 64.7884 34.8596 64.4776L34.4876 63.7056C33.975 63.9527 33.3811 64.0816 32.6967 64.0816V64.9384ZM34.8578 64.4784C35.4971 64.174 36.0417 63.7567 36.4869 63.2271L35.831 62.6758C35.4672 63.1085 35.0217 63.4513 34.4894 63.7048L34.8578 64.4784ZM36.4865 63.2276C36.9353 62.6951 37.2747 62.0783 37.5068 61.382L36.6939 61.111C36.4936 61.7117 36.2054 62.2315 35.8313 62.6753L36.4865 63.2276ZM37.5072 61.3807C37.7386 60.6789 37.853 59.936 37.853 59.1545H36.9961C36.9961 59.8513 36.8944 60.5031 36.6934 61.1123L37.5072 61.3807ZM60.906 66.6543V67.0827H61.9651L61.2039 66.3464L60.906 66.6543ZM58.0086 66.6543L57.7129 66.9644L57.8371 67.0827H58.0086V66.6543ZM53.5108 62.3657L53.8065 62.0556L53.6823 61.9373H53.5108V62.3657ZM46.9419 62.3657H46.5135V62.7941H46.9419V62.3657ZM46.9419 60.2528V59.8243H46.5135V60.2528H46.9419ZM56.8057 60.0017L56.9745 60.3956L56.9803 60.393L56.8057 60.0017ZM57.8203 59.3009L57.5173 58.9979L57.5137 59.0016L57.8203 59.3009ZM58.5107 58.2758L58.9045 58.4446L58.9055 58.4421L58.5107 58.2758ZM57.8203 54.7404L57.5136 55.0397L57.521 55.047L57.8203 54.7404ZM45.739 53.799V53.3705H45.3106V53.799H45.739ZM45.739 66.6543V67.0827H46.1675V66.6543H45.739ZM43.5947 66.6543H43.1663V67.0827H43.5947V66.6543ZM43.5947 51.6547V51.2262H43.1663V51.6547H43.5947ZM57.632 52.0835L57.4592 52.4756L57.4627 52.4771L57.632 52.0835ZM59.3265 53.2341L59.0214 53.5349L59.0258 53.5393L59.3265 53.2341ZM60.4771 54.9286L60.0836 55.0979L60.0851 55.1015L60.4771 54.9286ZM60.5608 58.9139L60.9602 59.069L60.9608 59.0674L60.5608 58.9139ZM59.609 60.5143L59.9329 60.7947L59.9349 60.7923L59.609 60.5143ZM58.176 61.6858L58.3865 62.059L58.388 62.0581L58.176 61.6858ZM56.4082 62.3029L56.3385 61.8802L55.4982 62.0187L56.1103 62.6109L56.4082 62.3029ZM60.906 66.2259H58.0086V67.0827H60.906V66.2259ZM58.3042 66.3442L53.8065 62.0556L53.2151 62.6758L57.7129 66.9644L58.3042 66.3442ZM53.5108 61.9373H46.9419V62.7941H53.5108V61.9373ZM47.3704 62.3657V60.2528H46.5135V62.3657H47.3704ZM46.9419 60.6812H55.5505V59.8243H46.9419V60.6812ZM55.5505 60.6812C56.0518 60.6812 56.528 60.5869 56.9745 60.3955L56.6369 59.6079C56.3024 59.7513 55.9417 59.8243 55.5505 59.8243V60.6812ZM56.9803 60.393C57.418 60.1976 57.8015 59.9335 58.1269 59.6002L57.5137 59.0016C57.2673 59.2541 56.9744 59.4572 56.631 59.6105L56.9803 60.393ZM58.1233 59.6039C58.4557 59.2715 58.7162 58.8839 58.9045 58.4446L58.1169 58.1071C57.9704 58.4488 57.7707 58.7446 57.5174 58.998L58.1233 59.6039ZM58.9055 58.4421C59.0958 57.9902 59.1902 57.5116 59.1902 57.0102H58.3333C58.3333 57.4014 58.2602 57.7666 58.1158 58.1096L58.9055 58.4421ZM59.1902 57.0102C59.1902 56.5089 59.0958 56.0327 58.9045 55.5862L58.1169 55.9238C58.2602 56.2583 58.3333 56.6189 58.3333 57.0102H59.1902ZM58.9045 55.5862C58.7158 55.146 58.4543 54.7605 58.1196 54.4338L57.521 55.047C57.7721 55.2921 57.9708 55.5829 58.1169 55.9238L58.9045 55.5862ZM58.1269 54.4411C57.8002 54.1064 57.4147 53.8449 56.9745 53.6562L56.6369 54.4438C56.9777 54.5899 57.2686 54.7885 57.5137 55.0397L58.1269 54.4411ZM56.9745 53.6562C56.528 53.4648 56.0518 53.3705 55.5505 53.3705V54.2274C55.9417 54.2274 56.3024 54.3005 56.6369 54.4438L56.9745 53.6562ZM55.5505 53.3705H45.739V54.2274H55.5505V53.3705ZM45.3106 53.799V66.6543H46.1675V53.799H45.3106ZM45.739 66.2259H43.5947V67.0827H45.739V66.2259ZM44.0232 66.6543V51.6547H43.1663V66.6543H44.0232ZM43.5947 52.0831H55.5505V51.2262H43.5947V52.0831ZM55.5505 52.0831C56.2328 52.0831 56.8675 52.2147 57.4592 52.4756L57.8049 51.6915C57.0995 51.3806 56.3466 51.2262 55.5505 51.2262V52.0831ZM57.4627 52.4771C58.062 52.7348 58.5803 53.0874 59.0214 53.5349L59.6317 52.9334C59.1105 52.4046 58.4991 51.9901 57.8013 51.69L57.4627 52.4771ZM59.0258 53.5393C59.4733 53.9804 59.8258 54.4987 60.0836 55.0979L60.8707 54.7594C60.5706 54.0616 60.1561 53.4502 59.6273 52.929L59.0258 53.5393ZM60.0851 55.1015C60.346 55.6932 60.4776 56.3279 60.4776 57.0102H61.3344C61.3344 56.2141 61.1801 55.4611 60.8692 54.7558L60.0851 55.1015ZM60.4776 57.0102C60.4776 57.6294 60.3714 58.2118 60.1608 58.7604L60.9608 59.0674C61.2105 58.4166 61.3344 57.7299 61.3344 57.0102H60.4776ZM60.1614 58.7588C59.9484 59.3077 59.6556 59.7994 59.283 60.2362L59.9349 60.7923C60.3712 60.2808 60.7131 59.7056 60.9602 59.069L60.1614 58.7588ZM59.285 60.2339C58.9132 60.6634 58.4737 61.0231 57.9639 61.3135L58.388 62.0581C58.98 61.7209 59.4958 61.2996 59.9329 60.7947L59.285 60.2339ZM57.9655 61.3126C57.4665 61.5941 56.9251 61.7835 56.3385 61.8802L56.4779 62.7257C57.1604 62.6132 57.7976 62.3912 58.3865 62.059L57.9655 61.3126ZM56.1103 62.6109L60.6081 66.9622L61.2039 66.3464L56.7061 61.995L56.1103 62.6109ZM81.8247 59.1022L81.432 58.9309L81.4312 58.9329L81.8247 59.1022ZM68.2895 62.3657H67.8611V62.7941H68.2895V62.3657ZM68.2895 60.2528V59.8243H67.8611V60.2528H68.2895ZM78.1533 60.0017L78.3221 60.3956L78.3279 60.393L78.1533 60.0017ZM79.1679 59.3009L78.8649 58.9979L78.8613 59.0016L79.1679 59.3009ZM79.8583 58.2758L80.2521 58.4446L80.2531 58.4421L79.8583 58.2758ZM79.1679 54.7404L78.8612 55.0397L78.8686 55.047L79.1679 54.7404ZM67.0866 53.799V53.3705H66.6582V53.799H67.0866ZM67.0866 66.6543V67.0827H67.5151V66.6543H67.0866ZM64.9423 66.6543H64.5139V67.0827H64.9423V66.6543ZM64.9423 51.6547V51.2262H64.5139V51.6547H64.9423ZM78.9796 52.0835L78.8068 52.4756L78.8103 52.4771L78.9796 52.0835ZM80.6741 53.2341L80.369 53.5349L80.3734 53.5393L80.6741 53.2341ZM81.8247 54.9286L81.4311 55.0979L81.4327 55.1015L81.8247 54.9286ZM81.8251 57.0102C81.8251 57.6924 81.6936 58.3313 81.432 58.9309L82.2174 59.2735C82.5277 58.5621 82.682 57.8063 82.682 57.0102H81.8251ZM81.4312 58.9329C81.1732 59.5327 80.82 60.0554 80.3712 60.5042L80.9771 61.1101C81.5045 60.5827 81.9184 59.9687 82.2183 59.2715L81.4312 58.9329ZM80.3712 60.5042C79.9299 60.9455 79.4109 61.2954 78.8103 61.5537L79.1489 62.3409C79.8454 62.0413 80.4561 61.6311 80.9771 61.1101L80.3712 60.5042ZM78.8103 61.5537C78.2178 61.8086 77.5818 61.9373 76.8981 61.9373V62.7941C77.6927 62.7941 78.4444 62.6439 79.1489 62.3409L78.8103 61.5537ZM76.8981 61.9373H68.2895V62.7941H76.8981V61.9373ZM68.7179 62.3657V60.2528H67.8611V62.3657H68.7179ZM68.2895 60.6812H76.8981V59.8243H68.2895V60.6812ZM76.8981 60.6812C77.3994 60.6812 77.8755 60.5869 78.3221 60.3955L77.9845 59.6079C77.65 59.7513 77.2893 59.8243 76.8981 59.8243V60.6812ZM78.3279 60.393C78.7656 60.1976 79.1491 59.9335 79.4745 59.6002L78.8613 59.0016C78.6149 59.2541 78.322 59.4572 77.9786 59.6105L78.3279 60.393ZM79.4708 59.6039C79.8033 59.2715 80.0638 58.8839 80.2521 58.4446L79.4645 58.1071C79.318 58.4488 79.1183 58.7446 78.8649 58.998L79.4708 59.6039ZM80.2531 58.4421C80.4434 57.9902 80.5377 57.5116 80.5377 57.0102H79.6809C79.6809 57.4014 79.6078 57.7666 79.4634 58.1096L80.2531 58.4421ZM80.5377 57.0102C80.5377 56.5089 80.4434 56.0327 80.2521 55.5862L79.4645 55.9238C79.6078 56.2583 79.6809 56.6189 79.6809 57.0102H80.5377ZM80.2521 55.5862C80.0634 55.146 79.8018 54.7605 79.4672 54.4338L78.8686 55.047C79.1197 55.2921 79.3184 55.5829 79.4645 55.9238L80.2521 55.5862ZM79.4745 54.4411C79.1478 54.1064 78.7622 53.8449 78.3221 53.6562L77.9845 54.4438C78.3253 54.5899 78.6162 54.7885 78.8613 55.0397L79.4745 54.4411ZM78.3221 53.6562C77.8755 53.4648 77.3994 53.3705 76.8981 53.3705V54.2274C77.2893 54.2274 77.65 54.3005 77.9845 54.4438L78.3221 53.6562ZM76.8981 53.3705H67.0866V54.2274H76.8981V53.3705ZM66.6582 53.799V66.6543H67.5151V53.799H66.6582ZM67.0866 66.2259H64.9423V67.0827H67.0866V66.2259ZM65.3708 66.6543V51.6547H64.5139V66.6543H65.3708ZM64.9423 52.0831H76.8981V51.2262H64.9423V52.0831ZM76.8981 52.0831C77.5803 52.0831 78.2151 52.2147 78.8068 52.4756L79.1525 51.6915C78.4471 51.3806 77.6942 51.2262 76.8981 51.2262V52.0831ZM78.8103 52.4771C79.4096 52.7348 79.9279 53.0874 80.369 53.5349L80.9793 52.9334C80.4581 52.4046 79.8467 51.9901 79.1489 51.69L78.8103 52.4771ZM80.3734 53.5393C80.8209 53.9804 81.1734 54.4987 81.4312 55.0979L82.2183 54.7594C81.9182 54.0616 81.5036 53.4502 80.9749 52.929L80.3734 53.5393ZM81.4327 55.1015C81.6936 55.6932 81.8251 56.3279 81.8251 57.0102H82.682C82.682 56.2141 82.5277 55.4611 82.2168 54.7558L81.4327 55.1015ZM101.938 51.6547L102.366 51.6559L102.368 51.2262H101.938V51.6547ZM101.917 59.1545L101.489 59.1533V59.1545H101.917ZM101.645 61.1628L101.233 61.0463L101.232 61.0493L101.645 61.1628ZM100.892 62.9515L100.523 62.7344L100.522 62.7359L100.892 62.9515ZM98.2038 65.6397L98.4194 66.0099L98.4208 66.0091L98.2038 65.6397ZM96.4256 66.3928L96.5391 66.806L96.5433 66.8048L96.4256 66.3928ZM90.8609 66.3928L90.7432 66.8048L90.7486 66.8062L90.8609 66.3928ZM89.0723 65.6292L88.8532 65.9974L88.8552 65.9986L89.0723 65.6292ZM87.566 64.4577L87.2607 64.7583L87.2631 64.7607L87.566 64.4577ZM86.3945 62.941L86.023 63.1546L86.0263 63.1601L86.3945 62.941ZM85.6414 61.1523L85.2279 61.2647L85.2294 61.27L85.6414 61.1523ZM85.3799 51.6547V51.2262H84.9514V51.6547H85.3799ZM87.5242 51.6547H87.9526V51.2262H87.5242V51.6547ZM87.9426 61.2465L87.5483 61.4142L87.549 61.4158L87.9426 61.2465ZM89.0827 62.9515L88.7775 63.2523L88.7819 63.2566L89.0827 62.9515ZM98.2143 62.9515L98.5172 63.2544L98.5194 63.2522L98.2143 62.9515ZM99.3544 61.2465L99.748 61.4158L99.7486 61.4142L99.3544 61.2465ZM99.7728 51.6547V51.2262H99.3444V51.6547H99.7728ZM101.51 51.6535L101.489 59.1533L102.346 59.1557L102.366 51.6559L101.51 51.6535ZM101.489 59.1545C101.489 59.8142 101.403 60.4444 101.233 61.0463L102.057 61.2793C102.25 60.5982 102.346 59.8894 102.346 59.1545H101.489ZM101.232 61.0493C101.067 61.6482 100.831 62.2096 100.523 62.7344L101.261 63.1685C101.609 62.5776 101.874 61.9465 102.058 61.2763L101.232 61.0493ZM100.522 62.7359C100.22 63.2542 99.8523 63.7305 99.4176 64.1652L100.023 64.7711C100.509 64.2853 100.923 63.7505 101.262 63.167L100.522 62.7359ZM99.4176 64.1652C98.9902 64.5925 98.5136 64.9608 97.9868 65.2703L98.4208 66.0091C99.0098 65.6631 99.5443 65.2503 100.023 64.7711L99.4176 64.1652ZM97.9882 65.2694C97.4692 65.5717 96.9095 65.809 96.3079 65.9808L96.5433 66.8048C97.2109 66.614 97.8367 66.3492 98.4194 66.0099L97.9882 65.2694ZM96.3121 65.9797C95.7163 66.1434 95.0921 66.2259 94.4382 66.2259V67.0827C95.165 67.0827 95.8658 66.9909 96.5391 66.8059L96.3121 65.9797ZM94.4382 66.2259H92.8588V67.0827H94.4382V66.2259ZM92.8588 66.2259C92.2049 66.2259 91.5768 66.1434 90.9733 65.9793L90.7486 66.8062C91.4281 66.9909 92.1319 67.0827 92.8588 67.0827V66.2259ZM90.9786 65.9808C90.3781 65.8093 89.8153 65.5689 89.2893 65.2598L88.8552 65.9986C89.4449 66.3451 90.0746 66.6137 90.7432 66.8048L90.9786 65.9808ZM89.2913 65.261C88.771 64.9515 88.2971 64.5829 87.869 64.1547L87.2631 64.7607C87.7415 65.2391 88.2717 65.6515 88.8532 65.9974L89.2913 65.261ZM87.8713 64.1571C87.442 63.7212 87.0727 63.243 86.7627 62.7219L86.0263 63.1601C86.3718 63.7408 86.7835 64.2737 87.2607 64.7583L87.8713 64.1571ZM86.7659 62.7274C86.4629 62.2005 86.2253 61.6366 86.0533 61.0346L85.2294 61.27C85.42 61.9372 85.6845 62.5657 86.0231 63.1546L86.7659 62.7274ZM86.0548 61.04C85.8908 60.4365 85.8083 59.8084 85.8083 59.1545H84.9514C84.9514 59.8813 85.0433 60.5851 85.2279 61.2647L86.0548 61.04ZM85.8083 59.1545V51.6547H84.9514V59.1545H85.8083ZM85.3799 52.0831H87.5242V51.2262H85.3799V52.0831ZM87.0957 51.6547V59.1545H87.9526V51.6547H87.0957ZM87.0957 59.1545C87.0957 59.9491 87.246 60.7037 87.5483 61.4142L88.3368 61.0787C88.0813 60.4783 87.9526 59.8382 87.9526 59.1545H87.0957ZM87.549 61.4158C87.8483 62.1117 88.2579 62.725 88.7776 63.2522L89.3878 62.6507C88.9452 62.2016 88.5947 61.6783 88.3362 61.0772L87.549 61.4158ZM88.7819 63.2566C89.3092 63.7763 89.9224 64.1858 90.6184 64.4852L90.957 63.698C90.3559 63.4395 89.8325 63.089 89.3835 62.6463L88.7819 63.2566ZM90.6184 64.4852C91.3224 64.788 92.0706 64.9384 92.8588 64.9384V64.0816C92.1826 64.0816 91.55 63.9531 90.957 63.698L90.6184 64.4852ZM92.8588 64.9384H94.4382V64.0816H92.8588V64.9384ZM94.4382 64.9384C95.2328 64.9384 95.9845 64.7882 96.689 64.4852L96.3505 63.698C95.7579 63.9529 95.122 64.0816 94.4382 64.0816V64.9384ZM96.689 64.4852C97.3856 64.1856 97.9962 63.7754 98.5172 63.2544L97.9113 62.6485C97.47 63.0898 96.951 63.4397 96.3505 63.698L96.689 64.4852ZM98.5194 63.2522C99.0391 62.725 99.4487 62.1117 99.748 61.4158L98.9608 61.0772C98.7023 61.6783 98.3518 62.2016 97.9091 62.6507L98.5194 63.2522ZM99.7486 61.4142C100.051 60.7037 100.201 59.9491 100.201 59.1545H99.3444C99.3444 59.8382 99.2157 60.4783 98.9602 61.0787L99.7486 61.4142ZM100.201 59.1545V51.6547H99.3444V59.1545H100.201ZM99.7728 52.0831H101.917V51.2262H99.7728V52.0831ZM101.917 52.0831H101.938V51.2262H101.917V52.0831ZM122.543 64.0498L122.936 64.2198L122.937 64.2179L122.543 64.0498ZM120.263 66.3196L120.095 65.9255L120.093 65.9263L120.263 66.3196ZM105.566 66.6543H105.138V67.0827H105.566V66.6543ZM105.566 64.51V64.0816H105.138V64.51H105.566ZM120.106 63.8824L119.803 63.5794L119.797 63.585L120.106 63.8824ZM120.566 63.2025L120.959 63.3726L120.961 63.3688L120.566 63.2025ZM120.106 60.8595L119.797 61.1569L119.803 61.1624L120.106 60.8595ZM106.822 58.9871L106.516 59.2874L106.521 59.2928L106.822 58.9871ZM105.901 57.6169L105.507 57.785L105.509 57.7894L105.901 57.6169ZM105.901 54.2801L105.509 54.1076L105.507 54.112L105.901 54.2801ZM108.192 51.9999L108.36 52.3939L108.364 52.392L108.192 51.9999ZM121.811 51.6547H122.239V51.2262H121.811V51.6547ZM121.811 53.799V54.2274H122.239V53.799H121.811ZM109.018 53.9663L108.852 53.5714L108.848 53.5731L109.018 53.9663ZM107.878 55.1169L108.271 55.287L108.273 55.2832L107.878 55.1169ZM107.878 56.7801L107.483 56.9463L107.485 56.9501L107.878 56.7801ZM109.018 57.9202L108.848 58.3135L108.852 58.3151L109.018 57.9202ZM120.263 58.4327L120.088 58.8241L120.095 58.8268L120.263 58.4327ZM121.622 59.3532L121.317 59.6535L121.322 59.6589L121.622 59.3532ZM122.543 60.713L122.149 60.8812L122.15 60.8831L122.543 60.713ZM122.449 62.3657C122.449 62.9108 122.348 63.4147 122.149 63.8816L122.937 64.2179C123.184 63.6389 123.306 63.02 123.306 62.3657H122.449ZM122.15 63.8797C121.948 64.347 121.671 64.755 121.32 65.1066L121.925 65.7125C122.355 65.2831 122.692 64.7845 122.936 64.2198L122.15 63.8797ZM121.32 65.1066C120.977 65.4496 120.57 65.7228 120.095 65.9255L120.431 66.7136C121.002 66.4701 121.501 66.1366 121.925 65.7125L121.32 65.1066ZM120.093 65.9263C119.633 66.125 119.137 66.2259 118.6 66.2259V67.0827C119.248 67.0827 119.86 66.9604 120.433 66.7128L120.093 65.9263ZM118.6 66.2259H105.566V67.0827H118.6V66.2259ZM105.995 66.6543V64.51H105.138V66.6543H105.995ZM105.566 64.9384H118.6V64.0816H105.566V64.9384ZM118.6 64.9384C118.954 64.9384 119.291 64.8722 119.606 64.7359L119.266 63.9494C119.065 64.0362 118.845 64.0816 118.6 64.0816V64.9384ZM119.606 64.7359C119.914 64.6027 120.185 64.4173 120.414 64.1798L119.797 63.585C119.65 63.738 119.474 63.8595 119.266 63.9494L119.606 64.7359ZM120.409 64.1854C120.643 63.9512 120.827 63.6793 120.959 63.3726L120.173 63.0324C120.082 63.2418 119.959 63.4231 119.803 63.5794L120.409 64.1854ZM120.961 63.3688C121.095 63.0501 121.162 62.7146 121.162 62.3657H120.305C120.305 62.6026 120.26 62.8249 120.171 63.0362L120.961 63.3688ZM121.162 62.3657C121.162 62.0168 121.095 61.6833 120.959 61.3693L120.173 61.7094C120.26 61.9115 120.305 62.1288 120.305 62.3657H121.162ZM120.959 61.3693C120.827 61.0626 120.643 60.7907 120.409 60.5565L119.803 61.1624C119.959 61.3188 120.082 61.5001 120.173 61.7094L120.959 61.3693ZM120.414 60.5621C120.185 60.3245 119.914 60.1392 119.606 60.006L119.266 60.7925C119.474 60.8824 119.65 61.0039 119.797 61.1569L120.414 60.5621ZM119.606 60.006C119.291 59.8697 118.954 59.8034 118.6 59.8034V60.6603C118.845 60.6603 119.065 60.7056 119.266 60.7925L119.606 60.006ZM118.6 59.8034H109.855V60.6603H118.6V59.8034ZM109.855 59.8034C109.325 59.8034 108.828 59.7029 108.36 59.5031L108.024 60.2912C108.601 60.5377 109.213 60.6603 109.855 60.6603V59.8034ZM108.36 59.5031C107.884 59.3001 107.473 59.0261 107.122 58.6815L106.521 59.2928C106.951 59.7152 107.454 60.0479 108.024 60.2912L108.36 59.5031ZM107.127 58.6869C106.782 58.335 106.503 57.922 106.293 57.4443L105.509 57.7894C105.759 58.3577 106.094 58.8582 106.516 59.2873L107.127 58.6869ZM106.295 57.4487C106.096 56.9811 105.995 56.4807 105.995 55.9433H105.138C105.138 56.5913 105.26 57.2066 105.507 57.785L106.295 57.4487ZM105.995 55.9433C105.995 55.4135 106.095 54.9165 106.295 54.4483L105.507 54.112C105.261 54.6898 105.138 55.3015 105.138 55.9433H105.995ZM106.293 54.4527C106.503 53.9757 106.781 53.5673 107.125 53.2233L106.519 52.6174C106.096 53.0405 105.759 53.5386 105.509 54.1076L106.293 54.4527ZM107.125 53.2233C107.475 52.8726 107.886 52.5962 108.36 52.3939L108.024 51.6058C107.452 51.8498 106.949 52.187 106.519 52.6174L107.125 53.2233ZM108.364 52.392C108.832 52.1864 109.327 52.0831 109.855 52.0831V51.2262C109.211 51.2262 108.598 51.353 108.019 51.6077L108.364 52.392ZM109.855 52.0831H121.811V51.2262H109.855V52.0831ZM121.382 51.6547V53.799H122.239V51.6547H121.382ZM121.811 53.3705H109.855V54.2274H121.811V53.3705ZM109.855 53.3705C109.506 53.3705 109.171 53.4373 108.852 53.5715L109.184 54.3612C109.396 54.2722 109.618 54.2274 109.855 54.2274V53.3705ZM108.848 53.5731C108.541 53.7057 108.27 53.8895 108.035 54.1236L108.641 54.7295C108.798 54.5732 108.979 54.4501 109.188 54.3596L108.848 53.5731ZM108.035 54.1236C107.799 54.3597 107.615 54.6367 107.483 54.9507L108.273 55.2832C108.364 55.0671 108.487 54.884 108.641 54.7295L108.035 54.1236ZM107.485 54.9469C107.349 55.2608 107.282 55.5944 107.282 55.9433H108.139C108.139 55.7064 108.184 55.4891 108.271 55.287L107.485 54.9469ZM107.282 55.9433C107.282 56.2922 107.349 56.6277 107.483 56.9463L108.273 56.6138C108.184 56.4024 108.139 56.1801 108.139 55.9433H107.282ZM107.485 56.9501C107.617 57.2568 107.801 57.5288 108.035 57.7629L108.641 57.157C108.485 57.0007 108.362 56.8193 108.271 56.61L107.485 56.9501ZM108.035 57.7629C108.27 57.9971 108.541 58.1808 108.848 58.3135L109.188 57.527C108.979 57.4364 108.798 57.3134 108.641 57.157L108.035 57.7629ZM108.852 58.3151C109.171 58.4492 109.506 58.516 109.855 58.516V57.6591C109.618 57.6591 109.396 57.6143 109.184 57.5253L108.852 58.3151ZM109.855 58.516H118.6V57.6591H109.855V58.516ZM118.6 58.516C119.135 58.516 119.63 58.6196 120.088 58.824L120.437 58.0414C119.864 57.7856 119.249 57.6591 118.6 57.6591V58.516ZM120.095 58.8268C120.568 59.0288 120.974 59.3045 121.317 59.6534L121.928 59.053C121.504 58.621 121.003 58.2829 120.431 58.0387L120.095 58.8268ZM121.322 59.6589C121.671 60.0016 121.947 60.4077 122.149 60.8812L122.937 60.5449C122.693 59.9724 122.355 59.4719 121.923 59.0476L121.322 59.6589ZM122.15 60.8831C122.349 61.3432 122.449 61.8359 122.449 62.3657H123.306C123.306 61.724 123.184 61.1149 122.936 60.543L122.15 60.8831Z" fill="#FFE0B2"/>
</svg>
