<svg width="170" height="42" viewBox="0 0 170 42" fill="none" xmlns="http://www.w3.org/2000/svg">
<mask id="path-1-inside-1_269_11333" fill="white">
<path fill-rule="evenodd" clip-rule="evenodd" d="M3.7564 31.2067L26.5712 38.8343L16.4363 23.9323L3.82641 30.9548L3.7564 31.2067ZM35.2593 41.1482V13.4496L21.5963 21.0586L35.2593 41.1482ZM29.0302 10.2954L11.1837 4.49004L6.00501 23.1183L29.0302 10.2954ZM5.53471 2.65245L0 0.852051V22.5611L5.53471 2.65245Z"/>
</mask>
<path fill-rule="evenodd" clip-rule="evenodd" d="M3.7564 31.2067L26.5712 38.8343L16.4363 23.9323L3.82641 30.9548L3.7564 31.2067ZM35.2593 41.1482V13.4496L21.5963 21.0586L35.2593 41.1482ZM29.0302 10.2954L11.1837 4.49004L6.00501 23.1183L29.0302 10.2954ZM5.53471 2.65245L0 0.852051V22.5611L5.53471 2.65245Z" fill="#FFE0B2"/>
<path d="M26.5712 38.8343L26.5054 39.0309L27.0881 39.2257L26.7426 38.7177L26.5712 38.8343ZM3.7564 31.2067L3.55664 31.1511L3.5039 31.3408L3.69066 31.4033L3.7564 31.2067ZM16.4363 23.9323L16.6077 23.8157L16.5011 23.6589L16.3354 23.7512L16.4363 23.9323ZM3.82641 30.9548L3.72553 30.7737L3.64986 30.8158L3.62666 30.8993L3.82641 30.9548ZM35.2593 13.4496H35.4666V13.0969L35.1584 13.2685L35.2593 13.4496ZM35.2593 41.1482L35.0878 41.2648L35.4666 41.8217V41.1482H35.2593ZM21.5963 21.0586L21.4954 20.8775L21.2974 20.9878L21.4249 21.1752L21.5963 21.0586ZM11.1837 4.49004L11.2479 4.29288L11.042 4.2259L10.984 4.43451L11.1837 4.49004ZM29.0302 10.2954L29.1311 10.4765L29.5464 10.2452L29.0944 10.0982L29.0302 10.2954ZM6.00501 23.1183L5.80525 23.0627L5.67233 23.5409L6.10588 23.2994L6.00501 23.1183ZM0 0.852051L0.0641351 0.65489L-0.20733 0.566584V0.852051H0ZM5.53471 2.65245L5.73446 2.70798L5.78764 2.5167L5.59884 2.45529L5.53471 2.65245ZM0 22.5611H-0.20733L0.199755 22.6167L0 22.5611ZM26.6369 38.6377L3.82214 31.01L3.69066 31.4033L26.5054 39.0309L26.6369 38.6377ZM26.7426 38.7177L16.6077 23.8157L16.2649 24.0489L26.3997 38.9509L26.7426 38.7177ZM16.3354 23.7512L3.72553 30.7737L3.92729 31.136L16.5372 24.1134L16.3354 23.7512ZM3.62666 30.8993L3.55664 31.1511L3.95615 31.2622L4.02617 31.0104L3.62666 30.8993ZM35.0519 13.4496V41.1482H35.4666V13.4496H35.0519ZM35.1584 13.2685L21.4954 20.8775L21.6972 21.2398L35.3601 13.6308L35.1584 13.2685ZM21.4249 21.1752L35.0878 41.2648L35.4307 41.0316L21.7677 20.942L21.4249 21.1752ZM11.1196 4.6872L28.9661 10.4925L29.0944 10.0982L11.2479 4.29288L11.1196 4.6872ZM10.984 4.43451L5.80525 23.0627L6.20476 23.1738L11.3835 4.54557L10.984 4.43451ZM6.10588 23.2994L29.1311 10.4765L28.9293 10.1142L5.90413 22.9371L6.10588 23.2994ZM-0.0641351 1.04921L5.47057 2.84961L5.59884 2.45529L0.0641351 0.65489L-0.0641351 1.04921ZM0.20733 22.5611V0.852051H-0.20733V22.5611H0.20733ZM0.199755 22.6167L5.73446 2.70798L5.33495 2.59692L-0.199755 22.5056L0.199755 22.6167Z" fill="#FFE0B2" mask="url(#path-1-inside-1_269_11333)"/>
<path d="M68.9876 30.9263H66.1935L58.783 23.4652L54.1869 26.7756V30.9263H52.1116V16.4091H54.1869V24.4978L65.5658 16.4091H68.5928L60.3623 22.3212L68.9876 30.9263ZM88.6665 23.6677C88.6665 24.6733 88.5079 25.6182 88.1907 26.5023C87.8735 27.3864 87.4213 28.1558 86.8342 28.8104C86.2538 29.4651 85.5552 29.9814 84.7386 30.3594C83.922 30.7373 83.0142 30.9263 82.0154 30.9263H77.1864C76.1808 30.9263 75.2663 30.7373 74.443 30.3594C73.6196 29.9814 72.9143 29.4651 72.3271 28.8104C71.7467 28.1558 71.2979 27.3864 70.9807 26.5023C70.6635 25.6182 70.5049 24.6733 70.5049 23.6677C70.5049 22.6688 70.6635 21.7307 70.9807 20.8533C71.2979 19.9692 71.7467 19.1998 72.3271 18.5452C72.9143 17.8838 73.6196 17.3641 74.443 16.9861C75.2663 16.6014 76.1808 16.4091 77.1864 16.4091H82.0154C83.0142 16.4091 83.922 16.6014 84.7386 16.9861C85.5552 17.3641 86.2538 17.8838 86.8342 18.5452C87.4213 19.1998 87.8735 19.9692 88.1907 20.8533C88.5079 21.7307 88.6665 22.6688 88.6665 23.6677ZM86.5912 23.6677C86.5912 22.9523 86.4866 22.2808 86.2774 21.6531C86.0682 21.0254 85.7645 20.4788 85.3663 20.0131C84.9748 19.5406 84.4956 19.1695 83.9287 18.8995C83.3686 18.6228 82.7308 18.4844 82.0154 18.4844H77.1864C76.471 18.4844 75.8265 18.6228 75.2528 18.8995C74.6859 19.1695 74.2034 19.5406 73.8052 20.0131C73.4137 20.4788 73.11 21.0254 72.8941 21.6531C72.6848 22.2808 72.5802 22.9523 72.5802 23.6677C72.5802 24.3831 72.6848 25.058 72.8941 25.6924C73.11 26.3201 73.4137 26.8701 73.8052 27.3425C74.2034 27.8082 74.6859 28.176 75.2528 28.446C75.8265 28.716 76.471 28.8509 77.1864 28.8509H82.0154C82.7308 28.8509 83.3686 28.716 83.9287 28.446C84.4956 28.176 84.9748 27.8082 85.3663 27.3425C85.7645 26.8701 86.0682 26.3201 86.2774 25.6924C86.4866 25.058 86.5912 24.3831 86.5912 23.6677ZM109.317 30.9263H106.513L102.16 26.7756H95.8024V24.7307H104.134C104.566 24.7307 104.971 24.6497 105.349 24.4877C105.727 24.319 106.054 24.0929 106.331 23.8094C106.614 23.526 106.837 23.1952 106.999 22.8173C107.161 22.4326 107.242 22.0243 107.242 21.5924C107.242 21.1604 107.161 20.7555 106.999 20.3775C106.837 19.9996 106.614 19.6723 106.331 19.3955C106.054 19.1121 105.727 18.8894 105.349 18.7274C104.971 18.5654 104.566 18.4844 104.134 18.4844H94.6382V30.9263H92.5629V16.4091H104.134C104.85 16.4091 105.521 16.5475 106.149 16.8242C106.776 17.0941 107.323 17.4653 107.789 17.9378C108.261 18.4034 108.632 18.9501 108.902 19.5778C109.179 20.2054 109.317 20.877 109.317 21.5924C109.317 22.2403 109.206 22.8544 108.983 23.4348C108.761 24.0085 108.454 24.5248 108.062 24.9837C107.671 25.4359 107.208 25.8139 106.675 26.1176C106.149 26.4145 105.578 26.6136 104.964 26.7149L109.317 30.9263ZM129.978 21.5924C129.978 22.3078 129.84 22.9827 129.563 23.6171C129.293 24.2447 128.922 24.7948 128.45 25.2672C127.984 25.7329 127.437 26.1007 126.81 26.3707C126.182 26.6406 125.51 26.7756 124.795 26.7756H116.463V24.7307H124.795C125.227 24.7307 125.632 24.6497 126.01 24.4877C126.388 24.319 126.715 24.0929 126.992 23.8094C127.275 23.526 127.498 23.1952 127.66 22.8173C127.822 22.4326 127.903 22.0243 127.903 21.5924C127.903 21.1604 127.822 20.7555 127.66 20.3775C127.498 19.9996 127.275 19.6723 126.992 19.3955C126.715 19.1121 126.388 18.8894 126.01 18.7274C125.632 18.5654 125.227 18.4844 124.795 18.4844H115.299V30.9263H113.224V16.4091H124.795C125.51 16.4091 126.182 16.5475 126.81 16.8242C127.437 17.0941 127.984 17.4653 128.45 17.9378C128.922 18.4034 129.293 18.9501 129.563 19.5778C129.84 20.2054 129.978 20.877 129.978 21.5924ZM149.03 16.4091L149.009 23.6677C149.009 24.3426 148.922 24.9905 148.746 25.6114C148.577 26.2256 148.334 26.8026 148.017 27.3425C147.707 27.8757 147.329 28.365 146.883 28.8104C146.445 29.2491 145.955 29.6271 145.416 29.9443C144.882 30.2547 144.309 30.4977 143.695 30.6732C143.08 30.8419 142.439 30.9263 141.771 30.9263H140.242C139.574 30.9263 138.93 30.8419 138.309 30.6732C137.695 30.4977 137.118 30.2514 136.578 29.9342C136.045 29.617 135.559 29.239 135.12 28.8003C134.681 28.3549 134.303 27.8656 133.986 27.3324C133.676 26.7925 133.433 26.2154 133.257 25.6013C133.088 24.9804 133.004 24.3358 133.004 23.6677V16.4091H135.079V23.6677C135.079 24.3831 135.214 25.058 135.484 25.6924C135.754 26.3201 136.122 26.8701 136.588 27.3425C137.06 27.8082 137.61 28.176 138.238 28.446C138.866 28.716 139.534 28.8509 140.242 28.8509H141.771C142.486 28.8509 143.158 28.716 143.786 28.446C144.413 28.176 144.96 27.8082 145.426 27.3425C145.891 26.8701 146.259 26.3201 146.529 25.6924C146.799 25.058 146.934 24.3831 146.934 23.6677V16.4091H149.009H149.03ZM169.296 26.7756C169.296 27.356 169.188 27.8993 168.972 28.4055C168.756 28.9049 168.459 29.3436 168.081 29.7216C167.71 30.0928 167.271 30.3863 166.765 30.6023C166.265 30.8183 165.729 30.9263 165.155 30.9263H152.541V28.8509H165.155C165.445 28.8509 165.715 28.7969 165.965 28.689C166.215 28.581 166.431 28.4325 166.613 28.2435C166.802 28.0546 166.95 27.8352 167.058 27.5855C167.166 27.329 167.22 27.0591 167.22 26.7756C167.22 26.4922 167.166 26.2256 167.058 25.9759C166.95 25.7261 166.802 25.5068 166.613 25.3178C166.431 25.1288 166.215 24.9804 165.965 24.8724C165.715 24.7644 165.445 24.7104 165.155 24.7104H156.692C156.125 24.7104 155.588 24.6024 155.082 24.3865C154.576 24.1705 154.134 23.8769 153.756 23.5057C153.385 23.1278 153.088 22.6857 152.865 22.1795C152.649 21.6733 152.541 21.1334 152.541 20.5598C152.541 19.9928 152.649 19.4563 152.865 18.9501C153.088 18.4439 153.385 18.0052 153.756 17.634C154.134 17.2561 154.576 16.9591 155.082 16.7432C155.588 16.5205 156.125 16.4091 156.692 16.4091H168.263V18.4844H156.692C156.408 18.4844 156.139 18.5384 155.882 18.6464C155.632 18.7544 155.413 18.9029 155.224 19.0918C155.035 19.2808 154.887 19.5035 154.779 19.76C154.671 20.0097 154.617 20.2763 154.617 20.5598C154.617 20.8432 154.671 21.1132 154.779 21.3696C154.887 21.6194 155.035 21.8387 155.224 22.0277C155.413 22.2166 155.632 22.3651 155.882 22.4731C156.139 22.5811 156.408 22.6351 156.692 22.6351H165.155C165.729 22.6351 166.265 22.7464 166.765 22.9692C167.271 23.1851 167.71 23.4821 168.081 23.86C168.459 24.2312 168.756 24.6699 168.972 25.1761C169.188 25.6755 169.296 26.2087 169.296 26.7756Z" fill="#FFE0B2"/>
<path d="M68.9876 30.9263V31.3409H69.9903L69.2804 30.6327L68.9876 30.9263ZM66.1935 30.9263L65.8993 31.2185L66.0209 31.3409H66.1935V30.9263ZM58.783 23.4652L59.0772 23.173L58.8279 22.9219L58.5407 23.1287L58.783 23.4652ZM54.1869 26.7756L53.9446 26.4391L53.7723 26.5633V26.7756H54.1869ZM54.1869 30.9263V31.3409H54.6016V30.9263H54.1869ZM52.1116 30.9263H51.697V31.3409H52.1116V30.9263ZM52.1116 16.4091V15.9944H51.697V16.4091H52.1116ZM54.1869 16.4091H54.6016V15.9944H54.1869V16.4091ZM54.1869 24.4978H53.7723V25.3013L54.4272 24.8358L54.1869 24.4978ZM65.5658 16.4091V15.9944H65.4334L65.3256 16.0711L65.5658 16.4091ZM68.5928 16.4091L68.8347 16.7459L69.8808 15.9944H68.5928V16.4091ZM60.3623 22.3212L60.1204 21.9845L59.7234 22.2696L60.0694 22.6148L60.3623 22.3212ZM68.9876 30.5116H66.1935V31.3409H68.9876V30.5116ZM66.4877 30.6341L59.0772 23.173L58.4888 23.7574L65.8993 31.2185L66.4877 30.6341ZM58.5407 23.1287L53.9446 26.4391L54.4293 27.1121L59.0254 23.8017L58.5407 23.1287ZM53.7723 26.7756V30.9263H54.6016V26.7756H53.7723ZM54.1869 30.5116H52.1116V31.3409H54.1869V30.5116ZM52.5263 30.9263V16.4091H51.697V30.9263H52.5263ZM52.1116 16.8238H54.1869V15.9944H52.1116V16.8238ZM53.7723 16.4091V24.4978H54.6016V16.4091H53.7723ZM54.4272 24.8358L65.8061 16.7471L65.3256 16.0711L53.9467 24.1598L54.4272 24.8358ZM65.5658 16.8238H68.5928V15.9944H65.5658V16.8238ZM68.3508 16.0723L60.1204 21.9845L60.6042 22.658L68.8347 16.7459L68.3508 16.0723ZM60.0694 22.6148L68.6947 31.2198L69.2804 30.6327L60.6552 22.0277L60.0694 22.6148ZM86.8342 28.8104L86.5255 28.5336L86.5239 28.5354L86.8342 28.8104ZM74.443 30.3594L74.27 30.7362L74.443 30.3594ZM72.3271 28.8104L72.0169 29.0855L72.0184 29.0873L72.3271 28.8104ZM70.9807 26.5023L70.5904 26.6423L70.9807 26.5023ZM70.9807 20.8533L71.3707 20.9943L71.371 20.9934L70.9807 20.8533ZM72.3271 18.5452L72.017 18.2699L72.0169 18.2701L72.3271 18.5452ZM74.443 16.9861L74.6159 17.363L74.6185 17.3618L74.443 16.9861ZM84.7386 16.9861L84.5619 17.3613L84.5644 17.3625L84.7386 16.9861ZM86.8342 18.5452L86.5225 18.8187L86.5255 18.822L86.8342 18.5452ZM88.1907 20.8533L87.8004 20.9934L87.8008 20.9943L88.1907 20.8533ZM85.3663 20.0131L85.0469 20.2777L85.0511 20.2826L85.3663 20.0131ZM83.9287 18.8995L83.7451 19.2713L83.7504 19.2739L83.9287 18.8995ZM75.2528 18.8995L75.4311 19.2739L75.433 19.273L75.2528 18.8995ZM73.8052 20.0131L73.4881 19.7458L73.4878 19.7463L73.8052 20.0131ZM72.8941 21.6531L72.5019 21.5182L72.5007 21.522L72.8941 21.6531ZM72.8941 25.6924L72.5002 25.8223L72.502 25.8273L72.8941 25.6924ZM73.8052 27.3425L73.4858 27.6071L73.49 27.612L73.8052 27.3425ZM75.2528 28.446L75.0746 28.8204L75.0763 28.8212L75.2528 28.446ZM83.9287 28.446L83.7504 28.0716L83.7487 28.0725L83.9287 28.446ZM85.3663 27.3425L85.0492 27.0753L85.0489 27.0757L85.3663 27.3425ZM86.2774 25.6924L86.6708 25.8235L86.6712 25.8223L86.2774 25.6924ZM88.2519 23.6677C88.2519 24.6289 88.1004 25.5261 87.8004 26.3622L88.581 26.6423C88.9155 25.7102 89.0812 24.7176 89.0812 23.6677H88.2519ZM87.8004 26.3622C87.5001 27.1994 87.0745 27.9215 86.5255 28.5336L87.1429 29.0873C87.7682 28.3901 88.247 27.5734 88.581 26.6423L87.8004 26.3622ZM86.5239 28.5354C85.9825 29.146 85.3307 29.6284 84.5644 29.983L84.9128 30.7357C85.7797 30.3344 86.525 29.7842 87.1445 29.0855L86.5239 28.5354ZM84.5644 29.983C83.8081 30.3331 82.9608 30.5116 82.0154 30.5116V31.3409C83.0677 31.3409 84.0358 31.1415 84.9128 30.7357L84.5644 29.983ZM82.0154 30.5116H77.1864V31.3409H82.0154V30.5116ZM77.1864 30.5116C76.2339 30.5116 75.3793 30.3329 74.6159 29.9825L74.27 30.7362C75.1533 31.1417 76.1277 31.3409 77.1864 31.3409V30.5116ZM74.6159 29.9825C73.8426 29.6275 73.1839 29.1447 72.6358 28.5336L72.0184 29.0873C72.6447 29.7855 73.3966 30.3353 74.27 30.7362L74.6159 29.9825ZM72.6374 28.5354C72.0945 27.923 71.6717 27.2004 71.371 26.3622L70.5904 26.6423C70.9241 27.5724 71.3989 28.3885 72.0169 29.0855L72.6374 28.5354ZM71.371 26.3622C71.071 25.5261 70.9196 24.6289 70.9196 23.6677H70.0902C70.0902 24.7176 70.256 25.7102 70.5904 26.6423L71.371 26.3622ZM70.9196 23.6677C70.9196 22.7135 71.0709 21.8234 71.3707 20.9943L70.5907 20.7123C70.2561 21.638 70.0902 22.6242 70.0902 23.6677H70.9196ZM71.371 20.9934C71.6717 20.1553 72.0945 19.4326 72.6374 18.8203L72.0169 18.2701C71.3989 18.9671 70.9241 19.7832 70.5904 20.7133L71.371 20.9934ZM72.6372 18.8205C73.1853 18.2031 73.8435 17.7176 74.6159 17.363L74.27 16.6093C73.3956 17.0106 72.6433 17.5644 72.017 18.2699L72.6372 18.8205ZM74.6185 17.3618C75.3813 17.0054 76.235 16.8238 77.1864 16.8238V15.9944C76.1267 15.9944 75.1514 16.1975 74.2674 16.6105L74.6185 17.3618ZM77.1864 16.8238H82.0154V15.9944H77.1864V16.8238ZM82.0154 16.8238C82.9597 16.8238 83.8062 17.0053 84.5619 17.3613L84.9153 16.611C84.0378 16.1976 83.0688 15.9944 82.0154 15.9944V16.8238ZM84.5644 17.3625C85.3298 17.7167 85.9811 18.2018 86.5225 18.8187L87.1459 18.2717C86.5264 17.5658 85.7807 17.0115 84.9128 16.6098L84.5644 17.3625ZM86.5255 18.822C87.0745 19.4341 87.5001 20.1562 87.8004 20.9934L88.581 20.7133C88.247 19.7822 87.7682 18.9655 87.1429 18.2683L86.5255 18.822ZM87.8008 20.9943C88.1005 21.8234 88.2519 22.7135 88.2519 23.6677H89.0812C89.0812 22.6242 88.9154 21.638 88.5807 20.7123L87.8008 20.9943ZM87.0059 23.6677C87.0059 22.9113 86.8952 22.1952 86.6708 21.522L85.884 21.7842C86.078 22.3663 86.1766 22.9932 86.1766 23.6677H87.0059ZM86.6708 21.522C86.446 20.8477 86.1171 20.2531 85.6814 19.7436L85.0511 20.2826C85.4119 20.7045 85.6903 21.2032 85.884 21.7842L86.6708 21.522ZM85.6856 19.7485C85.2547 19.2286 84.727 18.8204 84.107 18.5251L83.7504 19.2739C84.2642 19.5185 84.6949 19.8527 85.047 20.2776L85.6856 19.7485ZM84.1124 18.5277C83.4873 18.219 82.7852 18.0698 82.0154 18.0698V18.8991C82.6763 18.8991 83.2498 19.0266 83.7451 19.2713L84.1124 18.5277ZM82.0154 18.0698H77.1864V18.8991H82.0154V18.0698ZM77.1864 18.0698C76.4164 18.0698 75.7091 18.219 75.0727 18.526L75.433 19.273C75.9439 19.0265 76.5257 18.8991 77.1864 18.8991V18.0698ZM75.0746 18.5251C74.4552 18.8201 73.925 19.2275 73.4881 19.7458L74.1222 20.2803C74.4817 19.8538 74.9167 19.5188 75.4311 19.2739L75.0746 18.5251ZM73.4878 19.7463C73.0607 20.2544 72.733 20.8467 72.502 21.5182L73.2861 21.788C73.4871 21.2041 73.7668 20.7032 74.1226 20.2799L73.4878 19.7463ZM72.5007 21.522C72.2763 22.1952 72.1656 22.9113 72.1656 23.6677H72.9949C72.9949 22.9932 73.0934 22.3663 73.2874 21.7842L72.5007 21.522ZM72.1656 23.6677C72.1656 24.4241 72.2763 25.1431 72.5003 25.8223L73.2878 25.5625C73.0934 24.9729 72.9949 24.3421 72.9949 23.6677H72.1656ZM72.502 25.8273C72.7328 26.4983 73.06 27.0931 73.4859 27.6071L74.1245 27.078C73.7674 26.6471 73.4872 26.1418 73.2861 25.5575L72.502 25.8273ZM73.49 27.612C73.9269 28.123 74.4565 28.5261 75.0746 28.8204L75.4311 28.0716C74.9153 27.826 74.4798 27.4934 74.1203 27.0731L73.49 27.612ZM75.0763 28.8212C75.7119 29.1203 76.4179 29.2656 77.1864 29.2656V28.4363C76.5242 28.4363 75.9411 28.3116 75.4294 28.0708L75.0763 28.8212ZM77.1864 29.2656H82.0154V28.4363H77.1864V29.2656ZM82.0154 29.2656C82.7837 29.2656 83.4845 29.1204 84.1087 28.8195L83.7487 28.0725C83.2526 28.3116 82.6778 28.4363 82.0154 28.4363V29.2656ZM84.107 28.8204C84.7257 28.5258 85.2528 28.1219 85.6837 27.6093L85.0489 27.0757C84.6968 27.4945 84.2656 27.8263 83.7504 28.0716L84.107 28.8204ZM85.6833 27.6098C86.1177 27.0944 86.4461 26.4974 86.6708 25.8235L85.884 25.5613C85.6902 26.1427 85.4112 26.6458 85.0492 27.0753L85.6833 27.6098ZM86.6712 25.8223C86.8952 25.1431 87.0059 24.4241 87.0059 23.6677H86.1766C86.1766 24.3421 86.078 24.9729 85.8836 25.5625L86.6712 25.8223ZM109.317 30.9263V31.3409H110.342L109.606 30.6282L109.317 30.9263ZM106.513 30.9263L106.227 31.2264L106.347 31.3409H106.513V30.9263ZM102.16 26.7756L102.446 26.4755L102.326 26.361H102.16V26.7756ZM95.8024 26.7756H95.3878V27.1903H95.8024V26.7756ZM95.8024 24.7307V24.316H95.3878V24.7307H95.8024ZM105.349 24.4877L105.512 24.8689L105.518 24.8663L105.349 24.4877ZM106.331 23.8094L106.038 23.5162L106.034 23.5198L106.331 23.8094ZM106.999 22.8173L107.38 22.9806L107.381 22.9782L106.999 22.8173ZM106.999 20.3775L107.38 20.2142L106.999 20.3775ZM106.331 19.3955L106.034 19.6853L106.041 19.6923L106.331 19.3955ZM94.6382 18.4844V18.0698H94.2236V18.4844H94.6382ZM94.6382 30.9263V31.3409H95.0529V30.9263H94.6382ZM92.5629 30.9263H92.1482V31.3409H92.5629V30.9263ZM92.5629 16.4091V15.9944H92.1482V16.4091H92.5629ZM106.149 16.8242L105.981 17.2036L105.985 17.2051L106.149 16.8242ZM107.789 17.9378L107.493 18.2289L107.498 18.2331L107.789 17.9378ZM108.902 19.5778L108.521 19.7416L108.523 19.745L108.902 19.5778ZM108.983 23.4348L109.37 23.5849L109.37 23.5834L108.983 23.4348ZM108.062 24.9837L108.376 25.2551L108.378 25.2528L108.062 24.9837ZM106.675 26.1176L106.879 26.4787L106.88 26.4779L106.675 26.1176ZM104.964 26.7149L104.897 26.3057L104.084 26.4398L104.676 27.0129L104.964 26.7149ZM109.317 30.5116H106.513V31.3409H109.317V30.5116ZM106.799 30.6262L102.446 26.4755L101.874 27.0757L106.227 31.2264L106.799 30.6262ZM102.16 26.361H95.8024V27.1903H102.16V26.361ZM96.2171 26.7756V24.7307H95.3878V26.7756H96.2171ZM95.8024 25.1453H104.134V24.316H95.8024V25.1453ZM104.134 25.1453C104.619 25.1453 105.08 25.054 105.512 24.8688L105.186 24.1066C104.862 24.2453 104.513 24.316 104.134 24.316V25.1453ZM105.518 24.8663C105.942 24.6772 106.313 24.4217 106.628 24.0991L106.034 23.5198C105.796 23.7641 105.512 23.9607 105.18 24.109L105.518 24.8663ZM106.624 24.1026C106.946 23.7809 107.198 23.4058 107.38 22.9806L106.618 22.654C106.476 22.9847 106.283 23.271 106.038 23.5162L106.624 24.1026ZM107.381 22.9782C107.565 22.5408 107.657 22.0776 107.657 21.5924H106.827C106.827 21.971 106.757 22.3244 106.617 22.6564L107.381 22.9782ZM107.657 21.5924C107.657 21.1071 107.565 20.6463 107.38 20.2142L106.618 20.5409C106.757 20.8646 106.827 21.2137 106.827 21.5924H107.657ZM107.38 20.2142C107.198 19.7881 106.944 19.415 106.621 19.0988L106.041 19.6923C106.284 19.9295 106.477 20.211 106.618 20.5409L107.38 20.2142ZM106.628 19.1059C106.311 18.782 105.938 18.5288 105.512 18.3463L105.186 19.1085C105.515 19.2499 105.797 19.4422 106.034 19.6852L106.628 19.1059ZM105.512 18.3463C105.08 18.161 104.619 18.0698 104.134 18.0698V18.8991C104.513 18.8991 104.862 18.9698 105.186 19.1085L105.512 18.3463ZM104.134 18.0698H94.6382V18.8991H104.134V18.0698ZM94.2236 18.4844V30.9263H95.0529V18.4844H94.2236ZM94.6382 30.5116H92.5629V31.3409H94.6382V30.5116ZM92.9776 30.9263V16.4091H92.1482V30.9263H92.9776ZM92.5629 16.8238H104.134V15.9944H92.5629V16.8238ZM104.134 16.8238C104.794 16.8238 105.409 16.9511 105.981 17.2036L106.316 16.4447C105.633 16.1438 104.905 15.9944 104.134 15.9944V16.8238ZM105.985 17.2051C106.565 17.4545 107.066 17.7957 107.493 18.2288L108.084 17.6467C107.58 17.1349 106.988 16.7337 106.313 16.4432L105.985 17.2051ZM107.498 18.2331C107.931 18.66 108.272 19.1617 108.521 19.7416L109.283 19.4139C108.993 18.7386 108.592 18.1469 108.08 17.6424L107.498 18.2331ZM108.523 19.745C108.775 20.3177 108.903 20.932 108.903 21.5924H109.732C109.732 20.8219 109.583 20.0931 109.282 19.4105L108.523 19.745ZM108.903 21.5924C108.903 22.1917 108.8 22.7553 108.596 23.2863L109.37 23.5834C109.612 22.9536 109.732 22.2889 109.732 21.5924H108.903ZM108.597 23.2848C108.391 23.8159 108.107 24.2918 107.747 24.7147L108.378 25.2528C108.8 24.7578 109.131 24.2011 109.37 23.5849L108.597 23.2848ZM107.749 24.7123C107.389 25.128 106.963 25.4762 106.47 25.7573L106.88 26.4779C107.453 26.1515 107.953 25.7438 108.376 25.2551L107.749 24.7123ZM106.471 25.7564C105.989 26.0288 105.465 26.2122 104.897 26.3057L105.032 27.124C105.692 27.0151 106.309 26.8003 106.879 26.4787L106.471 25.7564ZM104.676 27.0129L109.029 31.2243L109.606 30.6282L105.253 26.4169L104.676 27.0129ZM129.563 23.6171L129.183 23.4513L129.182 23.4532L129.563 23.6171ZM128.45 25.2672L128.156 24.974L128.45 25.2672ZM116.463 26.7756H116.049V27.1903H116.463V26.7756ZM116.463 24.7307V24.316H116.049V24.7307H116.463ZM126.01 24.4877L126.173 24.8689L126.179 24.8663L126.01 24.4877ZM126.992 23.8094L126.699 23.5162L126.695 23.5198L126.992 23.8094ZM127.66 22.8173L128.041 22.9806L128.042 22.9782L127.66 22.8173ZM127.66 20.3775L128.041 20.2142L127.66 20.3775ZM126.992 19.3955L126.695 19.6853L126.702 19.6923L126.992 19.3955ZM115.299 18.4844V18.0698H114.885V18.4844H115.299ZM115.299 30.9263V31.3409H115.714V30.9263H115.299ZM113.224 30.9263H112.809V31.3409H113.224V30.9263ZM113.224 16.4091V15.9944H112.809V16.4091H113.224ZM126.81 16.8242L126.642 17.2036L126.646 17.2051L126.81 16.8242ZM128.45 17.9378L128.154 18.2289L128.159 18.2331L128.45 17.9378ZM129.563 19.5778L129.182 19.7416L129.184 19.745L129.563 19.5778ZM129.564 21.5924C129.564 22.2527 129.436 22.8709 129.183 23.4513L129.943 23.7828C130.244 23.0944 130.393 22.3628 130.393 21.5924H129.564ZM129.182 23.4532C128.933 24.0337 128.591 24.5396 128.156 24.974L128.743 25.5604C129.253 25.05 129.654 24.4557 129.944 23.7809L129.182 23.4532ZM128.156 24.974C127.729 25.4011 127.227 25.7398 126.646 25.9897L126.974 26.7516C127.648 26.4617 128.239 26.0647 128.743 25.5604L128.156 24.974ZM126.646 25.9897C126.072 26.2364 125.457 26.361 124.795 26.361V27.1903C125.564 27.1903 126.292 27.0449 126.974 26.7516L126.646 25.9897ZM124.795 26.361H116.463V27.1903H124.795V26.361ZM116.878 26.7756V24.7307H116.049V26.7756H116.878ZM116.463 25.1453H124.795V24.316H116.463V25.1453ZM124.795 25.1453C125.28 25.1453 125.741 25.054 126.173 24.8688L125.847 24.1066C125.523 24.2453 125.174 24.316 124.795 24.316V25.1453ZM126.179 24.8663C126.603 24.6772 126.974 24.4217 127.289 24.0991L126.695 23.5198C126.457 23.7641 126.173 23.9607 125.841 24.109L126.179 24.8663ZM127.285 24.1026C127.607 23.7809 127.859 23.4058 128.041 22.9806L127.279 22.654C127.137 22.9847 126.944 23.271 126.699 23.5162L127.285 24.1026ZM128.042 22.9782C128.226 22.5408 128.318 22.0776 128.318 21.5924H127.488C127.488 21.971 127.418 22.3244 127.278 22.6564L128.042 22.9782ZM128.318 21.5924C128.318 21.1071 128.226 20.6463 128.041 20.2142L127.279 20.5409C127.418 20.8646 127.488 21.2137 127.488 21.5924H128.318ZM128.041 20.2142C127.859 19.7881 127.605 19.415 127.282 19.0988L126.702 19.6923C126.945 19.9295 127.138 20.211 127.279 20.5409L128.041 20.2142ZM127.289 19.1059C126.972 18.782 126.599 18.5288 126.173 18.3463L125.847 19.1085C126.176 19.2499 126.458 19.4422 126.695 19.6852L127.289 19.1059ZM126.173 18.3463C125.741 18.161 125.28 18.0698 124.795 18.0698V18.8991C125.174 18.8991 125.523 18.9698 125.847 19.1085L126.173 18.3463ZM124.795 18.0698H115.299V18.8991H124.795V18.0698ZM114.885 18.4844V30.9263H115.714V18.4844H114.885ZM115.299 30.5116H113.224V31.3409H115.299V30.5116ZM113.639 30.9263V16.4091H112.809V30.9263H113.639ZM113.224 16.8238H124.795V15.9944H113.224V16.8238ZM124.795 16.8238C125.455 16.8238 126.07 16.9511 126.642 17.2036L126.977 16.4447C126.294 16.1438 125.566 15.9944 124.795 15.9944V16.8238ZM126.646 17.2051C127.226 17.4545 127.727 17.7957 128.154 18.2288L128.745 17.6467C128.241 17.1349 127.649 16.7337 126.974 16.4432L126.646 17.2051ZM128.159 18.2331C128.592 18.66 128.933 19.1617 129.182 19.7416L129.944 19.4139C129.654 18.7386 129.253 18.1469 128.741 17.6424L128.159 18.2331ZM129.184 19.745C129.436 20.3177 129.564 20.932 129.564 21.5924H130.393C130.393 20.8219 130.244 20.0931 129.943 19.4105L129.184 19.745ZM149.03 16.4091L149.444 16.4103L149.445 15.9944H149.03V16.4091ZM149.009 23.6677L148.595 23.6665V23.6677H149.009ZM148.746 25.6114L148.347 25.4986L148.346 25.5016L148.746 25.6114ZM148.017 27.3425L147.66 27.1325L147.659 27.1339L148.017 27.3425ZM146.883 28.8104L146.59 28.5172L146.883 28.8104ZM145.416 29.9443L145.624 30.3026L145.626 30.3018L145.416 29.9443ZM143.695 30.6732L143.804 31.073L143.808 31.0719L143.695 30.6732ZM138.309 30.6732L138.195 31.0719L138.2 31.0733L138.309 30.6732ZM136.578 29.9342L136.366 30.2905L136.368 30.2917L136.578 29.9342ZM135.12 28.8003L134.824 29.0913L134.827 29.0935L135.12 28.8003ZM133.986 27.3324L133.627 27.5391L133.63 27.5444L133.986 27.3324ZM133.257 25.6013L132.857 25.71L132.858 25.7152L133.257 25.6013ZM133.004 16.4091V15.9944H132.589V16.4091H133.004ZM135.079 16.4091H135.494V15.9944H135.079V16.4091ZM135.484 25.6924L135.103 25.8548L135.103 25.8562L135.484 25.6924ZM136.588 27.3425L136.292 27.6337L136.297 27.6378L136.588 27.3425ZM138.238 28.446L138.074 28.8269L138.238 28.446ZM145.426 27.3425L145.719 27.6357L145.721 27.6336L145.426 27.3425ZM146.529 25.6924L146.91 25.8562L146.911 25.8548L146.529 25.6924ZM146.934 16.4091V15.9944H146.519V16.4091H146.934ZM148.615 16.4079L148.595 23.6665L149.424 23.6688L149.444 16.4103L148.615 16.4079ZM148.595 23.6677C148.595 24.3062 148.512 24.9161 148.347 25.4986L149.145 25.7242C149.332 25.0649 149.424 24.379 149.424 23.6677H148.595ZM148.346 25.5016C148.187 26.0812 147.958 26.6245 147.66 27.1325L148.375 27.5526C148.711 26.9807 148.968 26.3699 149.146 25.7213L148.346 25.5016ZM147.659 27.1339C147.367 27.6355 147.011 28.0965 146.59 28.5172L147.177 29.1037C147.647 28.6335 148.047 28.1159 148.376 27.5512L147.659 27.1339ZM146.59 28.5172C146.177 28.9308 145.715 29.2872 145.205 29.5868L145.626 30.3018C146.196 29.967 146.713 29.5675 147.177 29.1037L146.59 28.5172ZM145.207 29.5859C144.705 29.8785 144.163 30.1081 143.581 30.2745L143.808 31.0719C144.455 30.8873 145.06 30.631 145.624 30.3026L145.207 29.5859ZM143.585 30.2733C143.008 30.4318 142.404 30.5116 141.771 30.5116V31.3409C142.475 31.3409 143.153 31.2521 143.804 31.073L143.585 30.2733ZM141.771 30.5116H140.242V31.3409H141.771V30.5116ZM140.242 30.5116C139.61 30.5116 139.002 30.4318 138.418 30.273L138.2 31.0733C138.858 31.2521 139.539 31.3409 140.242 31.3409V30.5116ZM138.423 30.2745C137.842 30.1084 137.297 29.8758 136.788 29.5766L136.368 30.2917C136.938 30.627 137.548 30.887 138.195 31.0719L138.423 30.2745ZM136.79 29.5778C136.286 29.2782 135.827 28.9215 135.413 28.5071L134.827 29.0935C135.29 29.5566 135.803 29.9557 136.366 30.2905L136.79 29.5778ZM135.415 28.5094C135 28.0875 134.642 27.6247 134.342 27.1204L133.63 27.5444C133.964 28.1065 134.363 28.6223 134.824 29.0913L135.415 28.5094ZM134.346 27.1257C134.052 26.6157 133.822 26.07 133.656 25.4874L132.858 25.7152C133.043 26.3609 133.299 26.9692 133.627 27.5391L134.346 27.1257ZM133.657 25.4925C133.499 24.9084 133.419 24.3005 133.419 23.6677H132.589C132.589 24.3711 132.678 25.0523 132.857 25.71L133.657 25.4925ZM133.419 23.6677V16.4091H132.589V23.6677H133.419ZM133.004 16.8238H135.079V15.9944H133.004V16.8238ZM134.665 16.4091V23.6677H135.494V16.4091H134.665ZM134.665 23.6677C134.665 24.4367 134.81 25.1671 135.103 25.8548L135.866 25.53C135.619 24.9489 135.494 24.3294 135.494 23.6677H134.665ZM135.103 25.8562C135.393 26.5298 135.79 27.1234 136.292 27.6336L136.883 27.0514C136.455 26.6168 136.115 26.1103 135.865 25.5286L135.103 25.8562ZM136.297 27.6378C136.807 28.1408 137.401 28.5372 138.074 28.8269L138.402 28.0651C137.82 27.8149 137.313 27.4756 136.879 27.0472L136.297 27.6378ZM138.074 28.8269C138.755 29.12 139.48 29.2656 140.242 29.2656V28.4363C139.588 28.4363 138.976 28.3119 138.402 28.0651L138.074 28.8269ZM140.242 29.2656H141.771V28.4363H140.242V29.2656ZM141.771 29.2656C142.54 29.2656 143.268 29.1202 143.949 28.8269L143.622 28.0651C143.048 28.3117 142.433 28.4363 141.771 28.4363V29.2656ZM143.949 28.8269C144.624 28.537 145.215 28.14 145.719 27.6357L145.132 27.0493C144.705 27.4764 144.203 27.8151 143.622 28.0651L143.949 28.8269ZM145.721 27.6336C146.224 27.1234 146.62 26.5298 146.91 25.8562L146.148 25.5286C145.898 26.1103 145.559 26.6168 145.13 27.0514L145.721 27.6336ZM146.911 25.8548C147.203 25.1671 147.349 24.4367 147.349 23.6677H146.519C146.519 24.3294 146.395 24.9489 146.148 25.53L146.911 25.8548ZM147.349 23.6677V16.4091H146.519V23.6677H147.349ZM146.934 16.8238H149.009V15.9944H146.934V16.8238ZM149.009 16.8238H149.03V15.9944H149.009V16.8238ZM168.972 28.4055L169.352 28.5701L169.353 28.5682L168.972 28.4055ZM168.081 29.7216L168.374 30.0148L168.081 29.7216ZM166.765 30.6023L166.602 30.2209L166.6 30.2217L166.765 30.6023ZM152.541 30.9263H152.127V31.3409H152.541V30.9263ZM152.541 28.8509V28.4363H152.127V28.8509H152.541ZM166.613 28.2435L166.32 27.9503L166.315 27.9557L166.613 28.2435ZM167.058 27.5855L167.439 27.7501L167.441 27.7464L167.058 27.5855ZM167.058 25.9759L167.439 25.8113L167.058 25.9759ZM166.613 25.3178L166.314 25.6057L166.32 25.611L166.613 25.3178ZM153.756 23.5057L153.46 23.7963L153.466 23.8015L153.756 23.5057ZM152.865 22.1795L152.484 22.3423L152.486 22.3465L152.865 22.1795ZM152.865 18.9501L152.486 18.7831L152.484 18.7874L152.865 18.9501ZM153.756 17.634L153.463 17.3408L153.756 17.634ZM155.082 16.7432L155.245 17.1246L155.249 17.1227L155.082 16.7432ZM168.263 16.4091H168.678V15.9944H168.263V16.4091ZM168.263 18.4844V18.8991H168.678V18.4844H168.263ZM155.882 18.6464L155.721 18.2642L155.717 18.2658L155.882 18.6464ZM154.779 19.76L155.159 19.9246L155.161 19.9209L154.779 19.76ZM154.779 21.3696L154.396 21.5306L154.398 21.5342L154.779 21.3696ZM155.882 22.4731L155.717 22.8537L155.721 22.8553L155.882 22.4731ZM166.765 22.9692L166.596 23.3479L166.602 23.3506L166.765 22.9692ZM168.081 23.86L167.785 24.1506L167.79 24.1559L168.081 23.86ZM168.972 25.1761L168.59 25.3388L168.591 25.3407L168.972 25.1761ZM168.881 26.7756C168.881 27.3032 168.783 27.7908 168.59 28.2428L169.353 28.5682C169.592 28.0078 169.71 27.4088 169.71 26.7756H168.881ZM168.591 28.2409C168.396 28.6932 168.128 29.0881 167.788 29.4284L168.374 30.0148C168.79 29.5992 169.116 29.1166 169.352 28.5701L168.591 28.2409ZM167.788 29.4284C167.456 29.7603 167.062 30.0247 166.602 30.2209L166.928 30.9837C167.48 30.748 167.964 30.4252 168.374 30.0148L167.788 29.4284ZM166.6 30.2217C166.156 30.414 165.675 30.5116 165.155 30.5116V31.3409C165.782 31.3409 166.375 31.2226 166.929 30.9829L166.6 30.2217ZM165.155 30.5116H152.541V31.3409H165.155V30.5116ZM152.956 30.9263V28.8509H152.127V30.9263H152.956ZM152.541 29.2656H165.155V28.4363H152.541V29.2656ZM165.155 29.2656C165.498 29.2656 165.825 29.2015 166.13 29.0696L165.801 28.3084C165.606 28.3924 165.393 28.4363 165.155 28.4363V29.2656ZM166.13 29.0696C166.428 28.9406 166.69 28.7612 166.912 28.5314L166.315 27.9557C166.172 28.1038 166.002 28.2213 165.801 28.3084L166.13 29.0696ZM166.906 28.5367C167.133 28.3101 167.311 28.0469 167.439 27.7501L166.678 27.4209C166.59 27.6235 166.471 27.799 166.32 27.9503L166.906 28.5367ZM167.441 27.7464C167.57 27.438 167.635 27.1133 167.635 26.7756H166.806C166.806 27.0049 166.762 27.22 166.676 27.4246L167.441 27.7464ZM167.635 26.7756C167.635 26.438 167.57 26.1151 167.439 25.8113L166.678 26.1404C166.762 26.336 166.806 26.5463 166.806 26.7756H167.635ZM167.439 25.8113C167.311 25.5144 167.133 25.2512 166.906 25.0246L166.32 25.611C166.471 25.7623 166.59 25.9378 166.678 26.1404L167.439 25.8113ZM166.912 25.03C166.69 24.8001 166.428 24.6207 166.13 24.4918L165.801 25.253C166.002 25.34 166.172 25.4576 166.315 25.6057L166.912 25.03ZM166.13 24.4918C165.825 24.3599 165.498 24.2957 165.155 24.2957V25.1251C165.393 25.1251 165.606 25.1689 165.801 25.253L166.13 24.4918ZM165.155 24.2957H156.692V25.1251H165.155V24.2957ZM156.692 24.2957C156.179 24.2957 155.698 24.1984 155.245 24.0051L154.92 24.7678C155.479 25.0064 156.071 25.1251 156.692 25.1251V24.2957ZM155.245 24.0051C154.785 23.8086 154.386 23.5434 154.047 23.2099L153.466 23.8015C153.882 24.2104 154.368 24.5324 154.92 24.7678L155.245 24.0051ZM154.052 23.2151C153.717 22.8745 153.448 22.4748 153.245 22.0125L152.486 22.3465C152.728 22.8966 153.052 23.381 153.46 23.7963L154.052 23.2151ZM153.247 22.0168C153.054 21.5642 152.956 21.0799 152.956 20.5598H152.127C152.127 21.1869 152.245 21.7824 152.484 22.3422L153.247 22.0168ZM152.956 20.5598C152.956 20.047 153.053 19.566 153.247 19.1128L152.484 18.7874C152.245 19.3466 152.127 19.9386 152.127 20.5598H152.956ZM153.245 19.1171C153.448 18.6554 153.716 18.2602 154.049 17.9273L153.463 17.3408C153.053 17.7503 152.728 18.2324 152.486 18.7831L153.245 19.1171ZM154.049 17.9273C154.389 17.5879 154.786 17.3204 155.245 17.1246L154.92 16.3618C154.366 16.5979 153.879 16.9243 153.463 17.3408L154.049 17.9273ZM155.249 17.1227C155.702 16.9237 156.181 16.8238 156.692 16.8238V15.9944C156.069 15.9944 155.475 16.1172 154.915 16.3636L155.249 17.1227ZM156.692 16.8238H168.263V15.9944H156.692V16.8238ZM167.849 16.4091V18.4844H168.678V16.4091H167.849ZM168.263 18.0698H156.692V18.8991H168.263V18.0698ZM156.692 18.0698C156.354 18.0698 156.03 18.1344 155.721 18.2642L156.043 19.0286C156.248 18.9424 156.463 18.8991 156.692 18.8991V18.0698ZM155.717 18.2658C155.421 18.3942 155.157 18.572 154.931 18.7986L155.517 19.385C155.669 19.2337 155.844 19.1146 156.047 19.027L155.717 18.2658ZM154.931 18.7986C154.702 19.0271 154.524 19.2953 154.396 19.5991L155.161 19.9209C155.249 19.7118 155.368 19.5345 155.517 19.385L154.931 18.7986ZM154.398 19.5954C154.267 19.8993 154.202 20.2221 154.202 20.5598H155.031C155.031 20.3305 155.075 20.1201 155.159 19.9246L154.398 19.5954ZM154.202 20.5598C154.202 20.8974 154.267 21.2222 154.396 21.5305L155.161 21.2087C155.075 21.0042 155.031 20.789 155.031 20.5598H154.202ZM154.398 21.5342C154.526 21.8311 154.704 22.0942 154.931 22.3209L155.517 21.7345C155.366 21.5831 155.247 21.4076 155.159 21.2051L154.398 21.5342ZM154.931 22.3209C155.157 22.5475 155.421 22.7253 155.717 22.8537L156.047 22.0925C155.844 22.0049 155.669 21.8858 155.517 21.7345L154.931 22.3209ZM155.721 22.8553C156.03 22.9851 156.354 23.0497 156.692 23.0497V22.2204C156.463 22.2204 156.248 22.1771 156.043 22.0909L155.721 22.8553ZM156.692 23.0497H165.155V22.2204H156.692V23.0497ZM165.155 23.0497C165.674 23.0497 166.152 23.15 166.596 23.3479L166.934 22.5904C166.379 22.3429 165.784 22.2204 165.155 22.2204V23.0497ZM166.602 23.3506C167.06 23.5461 167.453 23.8128 167.785 24.1506L168.377 23.5695C167.966 23.1513 167.482 22.8242 166.928 22.5878L166.602 23.3506ZM167.79 24.1559C168.128 24.4876 168.395 24.8806 168.59 25.3388L169.353 25.0134C169.117 24.4593 168.79 23.9749 168.372 23.5642L167.79 24.1559ZM168.591 25.3407C168.784 25.786 168.881 26.2629 168.881 26.7756H169.71C169.71 26.1545 169.592 25.5651 169.352 25.0115L168.591 25.3407Z" fill="#FFE0B2"/>
</svg>
