<svg width="4" height="4" viewBox="0 0 4 4" fill="none" xmlns="http://www.w3.org/2000/svg">
<path d="M3.66671 1.8335H2.97171L3.51171 1.2935L3.27671 1.05683L2.50004 1.8335H2.16671V1.50016L2.94337 0.723496L2.70671 0.488496L2.16671 1.0285V0.333496H1.83337V1.0285L1.29337 0.488496L1.05671 0.723496L1.83337 1.50016V1.8335H1.50004L0.723374 1.05683L0.488374 1.2935L1.02837 1.8335H0.333374V2.16683H1.02837L0.488374 2.70683L0.723374 2.9435L1.50004 2.16683H1.83337V2.50016L1.05671 3.27683L1.29337 3.51183L1.83337 2.97183V3.66683H2.16671V2.97183L2.70671 3.51183L2.94337 3.27683L2.16671 2.50016V2.16683H2.50004L3.27671 2.9435L3.51171 2.70683L2.97171 2.16683H3.66671V1.8335Z" fill="#D81B60"/>
</svg>
